# Blender 3.4.1
# www.blender.org
mtllib innerCross.mtl
o Cube
v -30.092701 -21.395905 -191.370544
v -30.092701 -21.395897 -191.370544
v -20.051289 -21.395905 -191.370544
v -20.051289 -21.395897 -191.370544
v -30.092701 -21.395906 -180.065186
v -30.092701 -21.395899 -180.065186
v -20.051289 -21.395906 -180.065186
v -20.051289 -21.395899 -180.065186
v -30.092701 -31.595104 -191.370544
v -20.051289 -31.595104 -191.370544
v -20.051289 -31.595104 -180.065186
v -30.092701 -31.595104 -180.065186
v -20.051289 -21.395897 -191.370544
v -20.051289 -21.395899 -180.065186
v -20.051289 -31.595104 -191.370544
v -20.051289 -31.595104 -180.065186
v 29.746517 -21.395897 -191.370544
v 29.746517 -21.395899 -180.065186
v 29.746517 -31.595104 -191.370544
v 29.746517 -31.595104 -180.065186
v -20.051298 -21.395931 26.818615
v -30.092710 -21.395931 26.818613
v -20.051298 -31.595139 26.818613
v -30.092710 -31.595139 26.818611
v -20.051298 -21.395931 26.818615
v -20.051298 -31.595139 26.818613
v 29.746508 -21.395931 26.818617
v 29.746508 -31.595139 26.818615
v -20.051300 -21.395939 73.920013
v -30.092712 -21.395939 73.920013
v -20.051300 -31.595146 73.920006
v -30.092712 -31.595146 73.920006
v -20.051300 -21.395939 73.920013
v -20.051300 -31.595146 73.920006
v 29.746506 -21.395939 73.920013
v 29.746506 -31.595146 73.920006
v -20.051304 -21.395956 174.644531
v -30.092716 -21.395956 174.644531
v -20.051304 -31.595161 174.644531
v -30.092716 -31.595161 174.644531
v -20.051304 -21.395956 174.644531
v -20.051304 -31.595161 174.644531
v 29.746502 -21.395956 174.644531
v 29.746502 -31.595161 174.644531
v -99.604095 -31.595139 26.818609
v -99.604095 -21.395931 26.818611
v -99.604095 -31.595146 73.919998
v -99.604095 -21.395939 73.920006
v -30.092709 -31.595135 9.322457
v -30.092709 -21.395929 9.322459
v -99.604095 -31.595135 9.322454
v -99.604095 -21.395929 9.322456
v 100.490204 -21.395931 26.818619
v 100.490204 -31.595139 26.818617
v 100.490204 -21.395939 73.920021
v 100.490204 -31.595146 73.920013
v 29.746510 -21.395929 8.075056
v 29.746510 -31.595135 8.075054
v 100.490204 -21.395929 8.075058
v 100.490204 -31.595135 8.075057
v -20.051289 34.111061 -191.370544
v -30.092701 34.111061 -191.370544
v -20.051289 34.111061 -180.065186
v -30.092701 34.111061 -180.065186
v -20.051289 34.111069 -180.065186
v -30.092701 34.111069 -180.065186
v -20.051289 34.111069 -191.370544
v -20.051289 34.111069 -180.065186
v 29.746517 34.111069 -191.370544
v 29.746517 34.111069 -180.065186
v -20.051298 34.111034 26.818624
v -30.092710 34.111034 26.818623
v -20.051298 34.111034 26.818624
v 29.746508 34.111034 26.818626
v -20.051300 34.111027 73.920021
v -30.092712 34.111027 73.920021
v -20.051300 34.111027 73.920021
v 29.746506 34.111027 73.920021
v -20.051304 34.111012 174.644531
v -30.092716 34.111012 174.644531
v -20.051304 34.111012 174.644531
v 29.746502 34.111012 174.644531
v -99.604095 34.111034 26.818621
v -99.604095 34.111027 73.920013
v -30.092709 34.111038 9.322469
v -99.604095 34.111038 9.322466
v 100.490204 34.111027 73.920029
v 100.490204 34.111034 26.818628
v 100.490204 34.111038 8.075068
v 29.746510 34.111038 8.075065
v -20.051287 -21.395901 -204.185898
v -30.092699 -21.395901 -204.185898
v -20.051287 -21.395893 -204.185898
v 29.746519 -21.395893 -204.185898
v -20.051287 34.111065 -204.185898
v -30.092699 34.111065 -204.185898
v -20.051287 34.111073 -204.185898
v 29.746519 34.111073 -204.185898
v 40.017986 -21.395897 -191.370544
v 40.017986 -21.395899 -180.065186
v 40.017979 -21.395931 26.818617
v 40.017986 34.111069 -191.370544
v 40.017986 34.111069 -180.065186
v 40.017979 34.111034 26.818626
v 29.746510 34.111038 -1.041482
v 29.746510 -21.395927 -1.041491
v 100.490204 -21.395927 -1.041488
v 100.490204 34.111038 -1.041479
v 109.830750 -21.395929 8.075059
v 109.830750 34.111038 8.075068
v 109.830750 -21.395939 73.920021
v 109.830750 -21.395931 26.818621
v 109.830750 34.111027 73.920029
v 109.830750 34.111034 26.818630
v 100.490204 -21.395941 83.622658
v 29.746506 -21.395941 83.622650
v 100.490204 34.111023 83.622665
v 29.746506 34.111023 83.622658
v 39.820686 -21.395956 174.644531
v 39.820690 -21.395939 73.920013
v 39.820686 34.111012 174.644531
v 39.820690 34.111027 73.920021
v -20.051304 34.111008 182.577667
v -20.051304 -21.395958 182.577667
v -20.051304 -21.395958 182.577667
v -30.092716 -21.395958 182.577667
v 29.746502 -21.395958 182.577667
v -20.051304 34.111008 182.577667
v -30.092716 34.111008 182.577667
v 29.746502 34.111008 182.577667
v -39.945244 -21.395956 174.644531
v -39.945240 -21.395939 73.920013
v -39.945244 34.111012 174.644531
v -39.945240 34.111027 73.920021
v -99.604095 -21.395941 83.312431
v -30.092712 -21.395941 83.312439
v -99.604095 34.111023 83.312439
v -30.092712 34.111023 83.312447
v -109.816071 -21.395929 9.322455
v -109.816071 34.111038 9.322465
v -109.816071 -21.395931 26.818611
v -109.816071 -21.395939 73.920006
v -109.816071 34.111034 26.818621
v -109.816071 34.111027 73.920013
v -99.604095 -21.395927 -0.882932
v -99.604095 34.111038 -0.882923
v -30.092709 34.111038 -0.882920
v -30.092709 -21.395927 -0.882929
v -39.906361 -21.395905 -191.370544
v -39.906361 -21.395906 -180.065186
v -39.906368 -21.395931 26.818613
v -39.906361 -21.395899 -180.065186
v -39.906368 34.111034 26.818623
v -39.906361 34.111061 -191.370544
v -39.906361 34.111061 -180.065186
v -39.906361 34.111069 -180.065186
vn -0.0000 -0.0000 -1.0000
vn 1.0000 -0.0000 -0.0000
vn -0.0000 -0.0000 1.0000
vn -1.0000 -0.0000 -0.0000
vn -0.0000 1.0000 -0.0000
vn -0.0000 -1.0000 -0.0000
vt 0.375000 0.000000
vt 0.375000 1.000000
vt 0.625000 0.000000
vt 0.625000 1.000000
vt 0.375000 0.250000
vt 0.625000 0.250000
vt 0.375000 0.750000
vt 0.625000 0.750000
vt 0.375000 0.500000
vt 0.625000 0.500000
vt 0.875000 0.750000
vt 0.625000 0.000000
vt 0.625000 1.000000
vt 0.625000 0.250000
vt 0.875000 0.500000
vt 0.625000 0.500000
vt 0.625000 0.750000
vt 0.625000 0.250000
vt 0.625000 0.500000
vt 0.625000 0.250000
vt 0.875000 0.500000
vt 0.625000 0.500000
vt 0.625000 0.250000
vt 0.625000 0.500000
vt 0.625000 0.250000
vt 0.875000 0.500000
vt 0.625000 0.500000
vt 0.625000 0.500000
vt 0.625000 0.750000
vt 0.625000 0.500000
vt 0.625000 0.750000
vt 0.625000 0.500000
vt 0.625000 0.500000
vt 0.625000 0.500000
vt 0.625000 0.500000
vt 0.625000 0.500000
vt 0.625000 0.750000
vt 0.625000 0.500000
vt 0.625000 0.750000
vt 0.625000 0.500000
vt 0.625000 0.500000
vt 0.625000 0.500000
vt 0.625000 0.500000
vt 0.625000 0.500000
vt 0.625000 0.750000
vt 0.625000 0.500000
vt 0.625000 0.750000
vt 0.625000 0.500000
vt 0.625000 0.500000
vt 0.625000 0.500000
vt 0.625000 0.500000
vt 0.625000 0.750000
vt 0.625000 0.750000
vt 0.625000 0.750000
vt 0.625000 0.750000
vt 0.625000 0.750000
vt 0.625000 0.750000
vt 0.625000 0.750000
vt 0.625000 0.750000
vt 0.625000 0.500000
vt 0.625000 0.500000
vt 0.625000 0.500000
vt 0.625000 0.500000
vt 0.625000 0.500000
vt 0.625000 0.500000
vt 0.625000 0.500000
vt 0.625000 0.500000
vt 0.125000 0.500000
vt 0.375000 0.250000
vt 0.125000 0.750000
vt 0.375000 1.000000
vt 0.375000 0.500000
vt 0.375000 0.750000
vt 0.625000 0.500000
vt 0.625000 0.750000
vt 0.625000 0.250000
vt 0.625000 0.500000
vt 0.625000 0.250000
vt 0.625000 0.500000
vt 0.625000 0.500000
vt 0.625000 0.750000
vt 0.625000 0.500000
vt 0.625000 0.500000
vt 0.625000 0.500000
vt 0.625000 0.750000
vt 0.625000 0.500000
vt 0.625000 0.500000
vt 0.625000 0.500000
vt 0.625000 0.750000
vt 0.625000 0.500000
vt 0.625000 0.500000
vt 0.625000 0.750000
vt 0.625000 0.750000
vt 0.625000 0.750000
vt 0.625000 0.750000
vt 0.625000 0.500000
vt 0.625000 0.500000
vt 0.625000 0.500000
vt 0.625000 0.500000
vt 0.375000 0.250000
vt 0.375000 0.000000
vt 0.375000 1.000000
vt 0.625000 0.250000
vt 0.625000 0.250000
vt 0.125000 0.500000
vt 0.375000 0.250000
vt 0.125000 0.750000
vt 0.375000 0.000000
vt 0.375000 1.000000
vt 0.625000 0.250000
vt 0.625000 0.250000
vt 0.625000 0.250000
vt 0.625000 0.500000
vt 0.625000 0.500000
vt 0.625000 0.250000
vt 0.625000 0.500000
vt 0.625000 0.500000
vt 0.625000 0.500000
vt 0.625000 0.500000
vt 0.625000 0.500000
vt 0.625000 0.500000
vt 0.625000 0.500000
vt 0.625000 0.500000
vt 0.625000 0.500000
vt 0.625000 0.500000
vt 0.625000 0.500000
vt 0.625000 0.500000
vt 0.625000 0.500000
vt 0.625000 0.500000
vt 0.625000 0.500000
vt 0.625000 0.500000
vt 0.625000 0.500000
vt 0.625000 0.500000
vt 0.625000 0.500000
vt 0.625000 0.500000
vt 0.625000 0.500000
vt 0.625000 0.500000
vt 0.625000 0.500000
vt 0.625000 0.750000
vt 0.625000 0.500000
vt 0.625000 0.500000
vt 0.625000 0.750000
vt 0.625000 0.500000
vt 0.625000 0.750000
vt 0.625000 0.750000
vt 0.625000 0.750000
vt 0.625000 0.750000
vt 0.625000 0.750000
vt 0.625000 0.750000
vt 0.625000 0.750000
vt 0.625000 0.750000
vt 0.625000 0.750000
vt 0.625000 0.750000
vt 0.625000 0.750000
vt 0.625000 0.750000
vt 0.625000 0.750000
vt 0.625000 0.750000
vt 0.625000 0.750000
vt 0.625000 0.750000
vt 0.625000 0.750000
vt 0.625000 0.750000
vt 0.375000 1.000000
vt 0.375000 0.750000
vt 0.625000 0.750000
vt 0.625000 0.750000
vt 0.625000 0.750000
vt 0.125000 0.750000
vt 0.375000 1.000000
vt 0.375000 0.750000
vt 0.625000 0.750000
s 0
f 1/1/1 2/3/1 4/6/1 3/5/1
f 3/5/2 4/6/2 8/10/2 7/9/2
f 7/9/3 8/10/3 6/8/3 5/7/3
f 5/7/4 6/8/4 2/4/4 1/2/4
f 5/7/5 1/2/5 149/162/5 150/163/5
f 14/19/2 13/18/2 67/76/2 68/77/2
f 11/16/5 10/15/5 9/11/5 12/17/5
f 4/6/3 2/3/3 9/12/3 10/14/3
f 2/4/2 6/8/2 12/17/2 9/13/2
f 4/6/5 10/14/5 15/20/5 13/18/5
f 18/24/4 20/27/4 28/35/4 27/34/4
f 10/15/5 11/16/5 16/22/5 15/21/5
f 8/10/5 4/6/5 13/18/5 14/19/5
f 11/16/5 8/10/5 14/19/5 16/22/5
f 18/24/4 17/23/4 19/25/4 20/27/4
f 8/10/4 21/28/4 71/80/4 65/74/4
f 13/18/3 15/20/3 19/25/3 17/23/3
f 15/21/5 16/22/5 20/27/5 19/26/5
f 32/39/5 24/31/5 45/52/5 47/54/5
f 28/35/5 36/43/5 56/63/5 54/61/5
f 12/17/2 6/8/2 22/29/2 24/31/2
f 20/27/5 16/22/5 26/33/5 28/35/5
f 16/22/2 14/19/2 25/32/2 26/33/2
f 8/10/4 11/16/4 23/30/4 21/28/4
f 11/16/5 12/17/5 24/31/5 23/30/5
f 53/60/5 55/62/5 111/124/5 112/125/5
f 36/43/5 34/41/5 42/49/5 44/51/5
f 46/53/5 52/59/5 139/152/5 141/154/5
f 23/30/5 24/31/5 32/39/5 31/38/5
f 74/83/6 70/79/6 103/116/6 104/117/6
f 26/33/2 25/32/2 33/40/2 34/41/2
f 21/28/4 23/30/4 31/38/4 29/36/4
f 27/34/2 57/64/2 90/99/2 74/83/2
f 28/35/5 26/33/5 34/41/5 36/43/5
f 38/45/1 37/44/1 39/46/1 40/47/1
f 42/49/1 41/48/1 43/50/1 44/51/1
f 35/42/4 36/43/4 44/51/4 43/50/4
f 32/39/2 30/37/2 38/45/2 40/47/2
f 31/38/5 32/39/5 40/47/5 39/46/5
f 52/59/3 86/95/3 140/153/3 139/152/3
f 34/41/2 33/40/2 41/48/2 42/49/2
f 29/36/4 31/38/4 39/46/4 37/44/4
f 45/52/2 46/53/2 48/55/2 47/54/2
f 24/31/4 22/29/4 50/57/4 49/56/4
f 30/37/1 32/39/1 47/54/1 48/55/1
f 3/5/4 7/9/4 63/72/4 61/69/4
f 49/56/3 50/57/3 52/59/3 51/58/3
f 90/99/2 57/64/2 106/119/2 105/118/2
f 45/52/5 24/31/5 49/56/5 51/58/5
f 46/53/2 45/52/2 51/58/2 52/59/2
f 53/60/4 54/61/4 56/63/4 55/62/4
f 41/48/2 33/40/2 77/86/2 81/90/2
f 50/57/4 22/29/4 72/81/4 85/94/4
f 36/43/1 35/42/1 55/62/1 56/63/1
f 57/64/3 58/65/3 60/67/3 59/66/3
f 54/61/4 53/60/4 59/66/4 60/67/4
f 27/34/2 28/35/2 58/65/2 57/64/2
f 28/35/5 54/61/5 60/67/5 58/65/5
f 61/68/6 63/72/6 64/73/6 62/70/6
f 66/75/6 65/74/6 71/80/6 72/81/6
f 68/77/6 67/76/6 69/78/6 70/79/6
f 68/77/6 70/79/6 74/83/6 73/82/6
f 76/85/6 75/84/6 79/88/6 80/89/6
f 73/82/6 74/83/6 78/87/6 77/86/6
f 72/81/6 71/80/6 75/84/6 76/85/6
f 77/86/6 78/87/6 82/91/6 81/90/6
f 72/81/6 76/85/6 84/93/6 83/92/6
f 72/81/6 83/92/6 86/95/6 85/94/6
f 88/97/6 74/83/6 90/99/6 89/98/6
f 78/87/6 74/83/6 88/97/6 87/96/6
f 43/50/5 41/48/5 124/137/5 127/140/5
f 7/9/1 5/7/1 64/73/1 63/72/1
f 61/68/6 62/70/6 96/107/6 95/105/6
f 6/8/3 8/10/3 65/74/3 66/75/3
f 29/36/4 37/44/4 79/88/4 75/84/4
f 87/96/6 88/97/6 114/127/6 113/126/6
f 25/32/2 14/19/2 68/77/2 73/82/2
f 76/85/6 80/89/6 133/146/6 134/147/6
f 6/8/3 66/75/3 156/170/3 152/165/3
f 48/55/2 84/93/2 137/150/2 135/148/2
f 33/40/2 25/32/2 73/82/2 77/86/2
f 78/87/3 35/42/3 120/133/3 122/135/3
f 35/42/2 78/87/2 118/131/2 116/129/2
f 21/28/4 29/36/4 75/84/4 71/80/4
f 67/76/2 13/18/2 93/103/2 97/110/2
f 38/45/2 80/89/2 129/142/2 126/139/2
f 86/95/2 52/59/2 145/158/2 146/159/2
f 17/23/5 18/24/5 100/113/5 99/112/5
f 93/103/3 94/104/3 98/111/3 97/110/3
f 92/101/3 91/100/3 95/106/3 96/108/3
f 17/23/4 69/78/4 98/111/4 94/104/4
f 1/1/5 3/5/5 91/100/5 92/101/5
f 62/71/2 1/2/2 92/102/2 96/109/2
f 69/78/6 67/76/6 97/110/6 98/111/6
f 3/5/4 61/69/4 95/106/4 91/100/4
f 13/18/5 17/23/5 94/104/5 93/103/5
f 100/113/4 101/114/4 104/117/4 103/116/4
f 99/112/4 100/113/4 103/116/4 102/115/4
f 69/78/3 17/23/3 99/112/3 102/115/3
f 27/34/1 74/83/1 104/117/1 101/114/1
f 18/24/5 27/34/5 101/114/5 100/113/5
f 70/79/6 69/78/6 102/115/6 103/116/6
f 106/119/3 107/120/3 108/121/3 105/118/3
f 89/98/6 90/99/6 105/118/6 108/121/6
f 59/66/4 89/98/4 108/121/4 107/120/4
f 57/64/5 59/66/5 107/120/5 106/119/5
f 109/122/4 112/125/4 114/127/4 110/123/4
f 112/125/4 111/124/4 113/126/4 114/127/4
f 88/97/6 89/98/6 110/123/6 114/127/6
f 55/62/1 87/96/1 113/126/1 111/124/1
f 89/98/3 59/66/3 109/122/3 110/123/3
f 59/66/5 53/60/5 112/125/5 109/122/5
f 115/128/1 116/129/1 118/131/1 117/130/1
f 55/62/5 35/42/5 116/129/5 115/128/5
f 78/87/6 87/96/6 117/130/6 118/131/6
f 87/96/4 55/62/4 115/128/4 117/130/4
f 120/133/4 119/132/4 121/134/4 122/135/4
f 43/50/1 82/91/1 121/134/1 119/132/1
f 82/91/6 78/87/6 122/135/6 121/134/6
f 35/42/5 43/50/5 119/132/5 120/133/5
f 127/140/1 124/137/1 123/136/1 130/143/1
f 125/138/1 126/139/1 129/142/1 128/141/1
f 81/90/6 82/91/6 130/143/6 123/136/6
f 41/48/2 81/90/2 123/136/2 124/137/2
f 37/44/5 38/45/5 126/139/5 125/138/5
f 82/91/4 43/50/4 127/140/4 130/143/4
f 80/89/6 79/88/6 128/141/6 129/142/6
f 79/88/4 37/44/4 125/138/4 128/141/4
f 131/144/2 132/145/2 134/147/2 133/146/2
f 80/89/1 38/45/1 131/144/1 133/146/1
f 38/45/5 30/37/5 132/145/5 131/144/5
f 30/37/3 76/85/3 134/147/3 132/145/3
f 136/149/1 135/148/1 137/150/1 138/151/1
f 84/93/6 76/85/6 138/151/6 137/150/6
f 76/85/4 30/37/4 136/149/4 138/151/4
f 30/37/5 48/55/5 135/148/5 136/149/5
f 142/155/2 141/154/2 143/156/2 144/157/2
f 141/154/2 139/152/2 140/153/2 143/156/2
f 84/93/1 48/55/1 142/155/1 144/157/1
f 83/92/6 84/93/6 144/157/6 143/156/6
f 48/55/5 46/53/5 141/154/5 142/155/5
f 86/95/6 83/92/6 143/156/6 140/153/6
f 145/158/3 148/161/3 147/160/3 146/159/3
f 50/57/4 85/94/4 147/160/4 148/161/4
f 52/59/5 50/57/5 148/161/5 145/158/5
f 85/94/6 86/95/6 146/159/6 147/160/6
f 151/164/2 152/165/2 156/170/2 153/166/2
f 150/163/2 149/162/2 154/168/2 155/169/2
f 62/70/6 64/73/6 155/169/6 154/167/6
f 66/75/6 72/81/6 153/166/6 156/170/6
f 1/2/3 62/71/3 154/168/3 149/162/3
f 72/81/1 22/29/1 151/164/1 153/166/1
f 22/29/5 6/8/5 152/165/5 151/164/5
f 64/73/1 5/7/1 150/163/1 155/169/1
