<?xml version="1.0" standalone="no"?>
<!DOCTYPE svg PUBLIC "-//W3C//DTD SVG 20010904//EN"
 "http://www.w3.org/TR/2001/REC-SVG-20010904/DTD/svg10.dtd">
<svg version="1.0" xmlns="http://www.w3.org/2000/svg"
 width="1000.000000pt" height="1080.000000pt" viewBox="0 0 1000.000000 1080.000000"
 preserveAspectRatio="xMidYMid meet">

<g transform="translate(0.000000,1080.000000) scale(0.100000,-0.100000)"
fill="#000000" stroke="none">
<path d="M0 5400 l0 -5400 5000 0 5000 0 0 5400 0 5400 -5000 0 -5000 0 0
-5400z m5480 4271 c475 -61 878 -181 1281 -380 603 -298 1109 -733 1498 -1285
34 -49 64 -98 67 -109 2 -11 17 -34 33 -51 25 -27 116 -177 165 -274 9 -17 21
-56 26 -84 13 -68 61 -170 97 -205 33 -33 125 -268 129 -328 1 -22 2 -46 3
-52 1 -7 6 -12 12 -10 14 2 26 -39 32 -106 3 -43 2 -48 -15 -44 -10 3 -21 1
-24 -5 -10 -16 -24 13 -24 52 0 19 -5 42 -10 50 -8 13 -13 13 -39 -3 -16 -9
-36 -17 -44 -17 -30 0 -37 -81 -18 -187 9 -50 9 -68 -2 -95 l-14 -33 -18 58
c-15 45 -17 62 -8 77 15 23 -9 47 -52 52 -39 4 -43 -18 -15 -78 22 -45 21 -69
-2 -46 -7 7 -16 12 -20 12 -13 0 -9 -64 7 -110 10 -27 12 -48 6 -59 -7 -13 1
-26 42 -62 83 -73 117 -84 117 -38 0 10 5 19 10 19 6 0 10 -23 10 -51 0 -28 4
-58 8 -67 4 -9 6 -61 3 -115 -5 -72 -3 -97 6 -97 7 0 16 8 22 17 12 23 18 17
41 -50 23 -66 26 -131 6 -169 -16 -29 -12 -38 16 -38 25 0 23 -8 -12 -40 l-30
-28 -21 34 c-17 28 -24 32 -35 23 -11 -9 -13 -26 -9 -68 6 -57 -4 -89 -24 -77
-6 4 -11 18 -11 31 0 13 -6 25 -12 28 -10 3 -8 12 6 36 12 22 15 36 8 43 -16
16 -70 -60 -83 -118 -17 -73 -23 -82 -47 -61 -10 9 -23 17 -29 17 -7 0 -10 16
-8 42 2 32 8 44 24 50 16 6 21 16 21 46 0 47 22 70 73 79 l36 5 -17 47 c-13
33 -24 47 -40 49 -15 2 -22 10 -22 24 0 42 -79 148 -110 148 -6 0 -10 -18 -10
-41 0 -39 -1 -41 -54 -64 -30 -13 -69 -40 -88 -59 -51 -52 -71 -48 -92 20 -12
38 -14 60 -8 66 16 16 32 0 32 -33 0 -34 10 -37 35 -9 l19 21 12 -22 c16 -30
27 -7 13 25 -10 20 -15 23 -26 15 -23 -20 -65 35 -58 74 3 18 -1 63 -9 102 -8
38 -13 71 -12 73 2 1 23 -3 48 -9 41 -11 44 -15 47 -48 2 -43 10 -53 18 -23 8
31 23 27 23 -6 0 -60 56 -85 70 -32 11 44 -7 90 -43 105 -30 14 -31 15 -9 21
24 7 27 20 12 60 -14 35 -90 313 -90 326 0 6 8 4 18 -5 28 -25 35 -21 29 18
-8 48 9 44 24 -5 13 -43 24 -51 34 -21 13 41 -38 111 -82 111 -19 0 -23 -5
-23 -30 0 -37 -6 -37 -35 -4 -21 25 -22 29 -9 60 20 47 17 101 -7 151 -29 59
-62 68 -98 24 -30 -36 -41 -39 -41 -12 0 11 -16 38 -35 61 -19 23 -35 48 -35
56 0 8 -6 11 -16 7 -23 -9 -14 -66 13 -78 24 -10 33 -32 33 -87 0 -63 -14 -87
-52 -85 -23 2 -34 7 -36 21 -3 15 0 18 17 13 26 -6 26 -1 1 41 -12 19 -20 50
-20 77 0 38 -5 47 -36 73 -20 17 -43 28 -50 25 -24 -9 -15 -42 16 -58 26 -13
29 -19 20 -35 -6 -11 -29 -29 -50 -40 -22 -11 -40 -27 -40 -35 0 -22 -21 -18
-27 5 -6 22 -18 26 -28 9 -4 -6 -13 -8 -20 -5 -9 3 -11 -4 -5 -30 17 -73 -14
-98 -48 -39 -11 19 -11 19 -12 -4 0 -13 -14 -48 -31 -78 -30 -53 -33 -55 -65
-50 -29 5 -37 1 -54 -23 -40 -56 -53 -110 -52 -220 0 -126 10 -164 41 -168 13
-2 26 -14 32 -28 12 -34 12 -107 -2 -121 -14 -14 -49 -5 -49 13 0 8 -4 14 -10
14 -16 0 -11 -36 8 -52 9 -9 26 -19 37 -22 20 -6 75 -115 75 -147 0 -18 66
-34 95 -23 12 5 16 2 15 -12 -5 -43 -1 -52 22 -46 14 3 44 -7 85 -29 52 -28
65 -31 72 -20 6 9 16 11 27 6 11 -4 34 -11 52 -15 l33 -8 -6 39 c-5 30 -3 39
7 39 8 0 36 14 62 31 27 16 50 28 52 26 2 -2 -3 -26 -11 -53 -8 -27 -12 -57
-9 -68 4 -12 2 -16 -5 -11 -7 4 -19 4 -28 1 -11 -5 -13 -9 -4 -20 6 -7 8 -27
5 -45 -6 -27 -4 -31 15 -31 13 0 30 7 38 16 20 20 27 14 91 -94 l50 -82 -21
-40 c-17 -30 -20 -44 -12 -57 16 -26 4 -77 -18 -81 -15 -3 -18 2 -16 25 1 15
1 56 1 90 -2 75 -21 77 -48 6 l-18 -46 -103 7 c-84 5 -103 3 -103 -8 0 -8 7
-16 15 -20 8 -3 15 -12 15 -21 0 -12 -9 -15 -35 -13 -26 2 -37 8 -45 28 -6 15
-26 41 -45 59 -32 30 -36 31 -51 17 -22 -23 -29 -21 -71 20 -21 19 -50 38 -65
41 -23 5 -26 8 -17 24 20 39 -13 46 -53 11 -19 -16 -21 -12 -19 24 2 18 -10
26 -68 49 -39 15 -78 36 -86 48 -18 26 -19 67 -3 103 11 23 10 28 -7 40 -10 8
-34 14 -52 14 -27 0 -35 5 -44 28 -6 15 -9 42 -7 59 4 32 3 33 -30 30 -29 -2
-36 -7 -49 -38 -13 -34 -17 -37 -71 -43 -48 -6 -59 -4 -70 11 -18 25 -11 47
16 51 12 2 22 10 22 18 0 22 -66 90 -117 119 -37 23 -44 30 -38 48 4 12 9 34
12 49 4 23 8 26 24 17 16 -8 21 -6 29 15 5 13 17 26 27 28 14 3 10 9 -18 27
-20 12 -39 31 -42 41 -5 18 -14 20 -87 19 -45 -1 -84 1 -87 4 -3 3 0 22 7 42
12 37 8 87 -12 130 -9 20 -16 22 -44 18 -25 -4 -40 -1 -54 12 -19 17 -21 17
-61 -10 -37 -26 -44 -28 -72 -17 -36 14 -48 6 -37 -25 7 -18 16 -21 49 -19 43
3 48 -2 30 -35 -25 -47 -69 -75 -69 -45 0 8 -5 18 -10 21 -18 11 -37 -13 -44
-54 -5 -34 -9 -38 -27 -34 -24 7 -39 -10 -39 -44 0 -32 -11 -29 -51 15 -60 64
-65 72 -41 72 12 0 30 -9 41 -21 l19 -21 21 41 c12 23 28 41 36 41 8 0 15 5
15 10 0 7 -13 8 -35 4 -19 -3 -35 -3 -35 1 0 4 15 24 34 45 29 33 33 42 27 71
-5 27 -12 35 -34 37 -31 4 -36 22 -8 29 23 6 33 26 24 49 -6 16 -32 15 -75 -1
-23 -9 -23 10 -2 61 l16 38 -34 32 c-31 28 -36 39 -41 93 -8 93 -46 137 -127
148 -22 3 -40 11 -40 18 0 6 -13 24 -30 38 l-30 27 26 57 c25 57 28 99 9 146
-13 32 36 19 81 -23 24 -22 52 -40 63 -40 13 0 20 -9 24 -30 8 -38 69 -70 149
-77 32 -3 58 -4 58 -1 0 3 -23 19 -51 37 -49 30 -51 32 -34 51 9 10 39 24 66
30 47 11 49 14 49 46 0 38 -28 49 -37 14 -7 -28 -23 -25 -23 4 0 28 17 44 57
52 26 5 31 2 45 -27 9 -18 14 -39 11 -47 -4 -10 -1 -13 13 -9 10 3 40 10 67
17 26 7 47 17 47 22 0 16 -27 62 -48 81 -17 16 -21 16 -32 2 -20 -24 -38 -18
-69 25 -32 44 -46 97 -56 203 l-7 68 -24 -15 c-79 -51 -68 -50 -108 -13 -27
25 -36 43 -36 66 0 29 -2 31 -27 25 -40 -10 -50 -20 -69 -69 -20 -53 -13 -87
22 -120 33 -31 24 -45 -31 -45 -53 0 -64 12 -27 30 15 7 22 15 15 17 -7 3 -27
-3 -45 -12 -18 -9 -55 -19 -81 -22 l-49 -6 26 28 c14 15 28 43 32 61 8 42 21
52 39 28 20 -28 31 -9 12 20 -17 25 -53 40 -124 50 -46 7 -50 4 -86 -54 -19
-32 -22 -33 -25 -13 -2 12 -10 27 -18 33 -21 18 -18 50 5 50 13 0 20 10 24 37
4 20 4 39 1 42 -3 4 -20 -11 -37 -32 -34 -40 -76 -53 -57 -18 5 11 10 31 10
46 0 14 4 24 9 20 9 -5 117 28 129 40 3 2 13 55 22 117 23 145 36 193 67 247
l25 43 -21 29 c-12 15 -21 33 -21 38 0 6 23 33 50 60 28 28 50 57 50 65 0 8
-15 32 -32 52 -63 72 -266 145 -359 130 -36 -6 -60 9 -70 42 -3 10 -11 8 -31
-7 -25 -20 -47 -14 -33 9 4 6 -11 10 -39 10 -51 0 -62 -10 -46 -41 11 -20 10
-21 -32 -14 -23 4 -65 13 -91 20 l-49 12 -44 -47 c-35 -38 -49 -46 -69 -42
-34 6 -31 16 11 41 30 18 34 24 24 36 -9 11 -34 15 -89 16 -96 1 -145 17 -149
50 -5 35 -18 44 -62 40 -31 -2 -40 1 -40 13 0 18 -17 21 -39 7 -12 -8 -13 -14
-3 -35 10 -23 17 -26 66 -26 47 0 54 -2 49 -18 -2 -10 4 -52 15 -94 l19 -76
-37 -11 c-21 -6 -40 -11 -43 -11 -12 0 16 55 37 74 l21 18 -28 24 c-16 13 -39
24 -53 24 -19 0 -24 -5 -24 -26 0 -19 -5 -25 -17 -22 -13 2 -19 14 -21 40 -3
36 -5 37 -33 31 -38 -7 -145 43 -155 72 -14 45 -49 115 -57 115 -5 0 -17 -5
-27 -10 -11 -6 -66 -17 -122 -25 -57 -9 -115 -18 -130 -21 -22 -4 -27 -1 -30
18 -2 15 -11 24 -25 26 -15 2 -23 10 -23 22 0 10 -16 37 -35 61 -20 23 -41 51
-47 63 -16 31 -16 31 -41 9 -34 -32 -126 -93 -138 -93 -6 0 -19 10 -29 22 -15
20 -21 21 -44 10 -14 -6 -26 -19 -26 -27 0 -12 -7 -14 -27 -9 -33 7 -53 30
-53 57 0 18 -5 19 -61 14 -37 -3 -81 -16 -112 -31 -27 -15 -52 -24 -55 -21 -3
3 0 5 6 5 16 0 15 27 0 33 -10 3 -8 12 5 36 16 28 17 32 3 37 -27 10 -59 -3
-120 -51 -72 -56 -100 -64 -140 -41 -29 17 -30 17 -54 -14 -14 -18 -30 -29
-38 -26 -8 3 -14 0 -14 -6 0 -8 24 -9 78 -5 73 6 75 5 49 -9 -15 -8 -67 -19
-114 -25 -48 -5 -98 -12 -110 -15 -35 -9 -27 4 14 23 21 10 39 27 42 38 3 19
3 19 -16 3 -27 -25 -30 -23 -38 22 -4 22 -10 40 -14 40 -12 0 -100 -92 -107
-112 -5 -17 -34 -26 -34 -10 0 4 -4 13 -9 20 -6 11 -14 8 -37 -13 -35 -33 -87
-32 -92 1 -3 23 2 24 -95 -6 -21 -7 -40 -10 -41 -8 -2 1 1 18 6 36 9 34 28 44
28 15 0 -13 6 -9 19 12 10 17 33 43 50 59 17 17 31 33 31 38 0 14 -73 -21
-102 -49 -26 -25 -28 -25 -28 -7 0 39 69 84 128 84 25 1 25 2 9 14 -16 12 -14
15 20 38 21 14 49 31 63 38 l24 13 -16 -25 c-9 -14 -14 -28 -11 -31 7 -7 53
10 73 27 8 8 40 17 70 20 77 10 218 86 220 119 0 17 -37 5 -85 -28 -41 -29
-60 -35 -103 -36 -29 -1 -55 1 -57 3 -3 3 44 30 104 61 79 42 119 57 149 57
31 0 44 6 59 25 19 26 157 89 220 101 20 4 51 15 67 25 41 23 267 91 430 128
203 47 403 75 661 95 128 10 547 -4 695 -23z m-1660 -716 c0 -8 -4 -15 -10
-15 -5 0 -10 7 -10 15 0 8 5 15 10 15 6 0 10 -7 10 -15z m-220 -14 c0 -13 -27
-21 -72 -21 -49 0 -44 10 9 20 55 11 63 11 63 1z m-890 -86 c-13 -14 -26 -23
-28 -20 -7 7 29 45 41 45 6 0 0 -11 -13 -25z m-75 -15 c-3 -5 -11 -10 -16 -10
-6 0 -7 5 -4 10 3 6 11 10 16 10 6 0 7 -4 4 -10z m945 -9 c0 -6 -4 -13 -10
-16 -5 -3 -10 1 -10 9 0 9 5 16 10 16 6 0 10 -4 10 -9z m-30 -92 c0 -5 -7 -9
-15 -9 -9 0 -15 9 -15 21 0 18 2 19 15 9 8 -7 15 -16 15 -21z m-532 -88 c11
-6 6 -14 -17 -30 -17 -12 -31 -29 -31 -37 0 -8 -4 -14 -10 -14 -15 0 -12 43 6
68 16 23 31 27 52 13z m480 -43 c-1 -31 -9 -49 -25 -65 -23 -22 -23 -24 -7
-48 9 -14 27 -28 40 -31 30 -8 30 -18 2 -38 -31 -22 -48 -20 -48 7 0 32 -63
118 -79 108 -10 -7 -10 -13 1 -31 10 -18 10 -24 1 -27 -20 -7 -15 -23 7 -23
25 0 25 3 -2 -67 -22 -57 -22 -57 -29 -28 -4 17 -7 56 -8 88 0 31 -5 57 -11
57 -5 0 -10 -3 -10 -8 0 -4 -11 -14 -24 -22 -43 -27 -146 -124 -146 -137 0 -8
14 -16 31 -20 17 -3 33 -12 36 -20 8 -20 -6 -30 -18 -13 -7 12 -11 12 -17 2
-12 -18 -69 -32 -136 -32 -99 0 -140 -38 -191 -176 -36 -98 -57 -144 -65 -144
-4 0 -13 7 -20 15 -7 8 -19 15 -26 15 -8 0 -14 2 -14 3 0 17 45 128 79 195 40
79 41 85 24 98 -35 26 -54 26 -92 0 -20 -14 -42 -26 -49 -26 -8 0 -9 -7 -1
-27 11 -28 4 -93 -9 -93 -4 0 -15 16 -24 36 -37 82 41 184 175 230 38 13 47
20 47 39 0 12 8 33 18 45 15 19 29 22 88 24 53 1 76 6 99 22 67 48 99 58 188
61 86 2 90 4 128 38 22 20 50 35 63 35 23 0 25 -4 24 -42z m716 -13 c6 -17 48
-20 76 -5 13 7 29 5 53 -5 19 -8 74 -24 123 -36 49 -12 103 -33 122 -46 30
-22 32 -28 32 -84 0 -56 2 -60 33 -79 50 -31 81 -26 106 15 26 44 41 45 41 1
0 -24 16 -57 55 -116 30 -45 55 -87 55 -91 0 -5 -9 -18 -21 -30 -30 -30 -19
-58 41 -102 27 -20 50 -42 50 -47 0 -20 21 -9 33 18 6 15 16 30 22 35 6 5 3
13 -9 22 -16 12 -22 12 -34 2 -13 -10 -14 -9 -9 3 4 8 10 22 13 30 4 11 15 15
40 12 31 -4 36 -1 47 27 12 32 21 38 32 21 3 -5 24 -10 45 -10 l39 0 -5 48
c-5 39 -2 53 18 82 53 78 145 104 203 58 17 -13 30 -18 32 -12 2 6 9 19 16 28
11 15 14 15 35 1 14 -11 22 -26 22 -45 0 -17 9 -38 23 -50 l22 -21 -37 -31
c-50 -39 -49 -52 3 -45 25 3 63 21 99 46 68 48 88 50 120 16 13 -14 27 -25 31
-25 9 0 40 55 38 66 -2 16 145 83 157 71 15 -14 -13 -52 -72 -98 -35 -28 -64
-55 -64 -60 0 -5 11 -15 25 -21 14 -6 25 -14 25 -18 0 -4 -39 -20 -87 -35 -49
-15 -100 -35 -115 -43 -27 -16 -28 -18 -21 -84 5 -59 4 -68 -11 -68 -29 0 -17
-15 28 -33 24 -10 51 -26 61 -37 20 -22 16 -67 -5 -61 -54 14 -61 13 -67 -8
-7 -26 -7 -26 -41 -1 -45 33 -62 19 -62 -52 l0 -60 30 6 c34 6 38 -3 14 -38
-14 -23 -14 -25 8 -40 12 -9 27 -16 33 -16 7 0 9 -14 7 -34 -2 -21 3 -44 13
-59 18 -27 80 -57 120 -57 14 0 25 -4 25 -10 0 -13 -41 -50 -55 -50 -6 0 -40
22 -76 50 -69 54 -103 63 -112 30 -6 -25 -12 -24 -169 26 -80 25 -126 34 -177
34 l-70 0 -35 -42 c-19 -24 -53 -54 -76 -68 -41 -25 -41 -25 -35 -73 5 -44 3
-50 -23 -72 -17 -14 -39 -44 -50 -67 l-20 -43 -18 59 c-12 38 -26 62 -39 68
-17 8 -20 17 -18 53 3 43 2 44 -55 82 -48 32 -58 43 -60 71 -3 31 -2 33 25 30
22 -2 33 -13 49 -47 23 -48 21 -50 44 39 7 24 23 67 37 93 13 27 21 52 18 55
-4 4 -23 -11 -42 -33 -25 -30 -36 -36 -42 -26 -6 10 -19 11 -52 5 -24 -5 -48
-8 -53 -9 -6 0 -64 142 -66 163 0 2 17 2 38 0 35 -3 37 -2 35 26 -2 34 -29 66
-55 66 -14 0 -18 -8 -18 -32 0 -32 -1 -33 -49 -35 l-49 -1 -26 57 c-16 37 -30
94 -38 161 l-13 105 -43 3 c-37 3 -42 6 -42 27 0 33 -39 60 -117 79 -64 16
-103 38 -103 58 0 4 20 28 45 51 47 45 53 68 34 111 -14 31 -54 41 -107 26
-66 -17 -87 -41 -86 -94 l1 -45 -27 14 c-15 8 -60 39 -100 69 -40 31 -93 65
-117 77 -51 25 -55 50 -13 81 24 18 28 18 65 2 60 -25 125 -14 231 39 100 51
109 53 118 32z m-506 -42 c-2 -10 -22 -25 -48 -34 -31 -12 -46 -23 -48 -38 -4
-24 -8 -25 -40 -8 l-22 13 28 27 c26 25 90 55 120 56 8 1 12 -7 10 -16z m1782
7 c0 -5 -7 -10 -15 -10 -8 0 -15 5 -15 10 0 6 7 10 15 10 8 0 15 -4 15 -10z
m-1780 -152 c-16 -13 -26 -15 -41 -8 -27 15 -24 33 5 26 15 -4 28 0 37 10 10
12 14 13 18 3 2 -7 -6 -21 -19 -31z m-180 -35 c0 -40 -35 -91 -75 -110 -19 -9
-38 -14 -41 -10 -3 3 -3 29 1 56 6 44 10 51 29 51 13 0 31 9 41 20 26 28 45
25 45 -7z m-840 -21 c0 -5 -6 -16 -13 -27 -10 -12 -16 -14 -21 -7 -4 7 -1 18
6 26 14 17 28 20 28 8z m-98 -34 c-9 -9 -12 -7 -12 12 0 19 3 21 12 12 9 -9 9
-15 0 -24z m2446 10 c8 -8 8 -17 1 -30 -6 -11 -10 -29 -9 -41 4 -40 0 -41 -29
-13 -20 19 -37 27 -50 23 -18 -4 -18 -2 -8 20 10 23 50 52 73 53 5 0 15 -5 22
-12z m-1653 -143 c0 -5 -8 -11 -19 -13 -16 -3 -18 0 -12 22 7 29 -5 34 -24 11
-29 -35 -51 1 -23 39 l18 24 30 -36 c17 -20 30 -41 30 -47z m-578 58 c2 -6
-10 -18 -26 -26 -32 -16 -38 -9 -20 24 11 21 40 22 46 2z m1071 -34 c-2 -6 -8
-10 -13 -10 -5 0 -11 4 -13 10 -2 6 4 11 13 11 9 0 15 -5 13 -11z m-1283 -19
c-3 -5 -13 -10 -21 -10 -8 0 -12 5 -9 10 3 6 13 10 21 10 8 0 12 -4 9 -10z
m3413 -8 c3 -9 -3 -13 -19 -10 -12 1 -24 9 -27 16 -3 9 3 13 19 10 12 -1 24
-9 27 -16z m-2069 -38 c-10 -13 -10 -17 2 -25 11 -7 9 -9 -8 -9 -30 0 -39 18
-17 35 26 19 39 19 23 -1z m-1422 -131 c-9 -9 -19 -14 -22 -11 -3 3 2 13 11
22 9 9 19 14 22 11 3 -3 -2 -13 -11 -22z m1571 -5 c-3 -7 -11 -13 -18 -13 -7
0 -15 6 -17 13 -3 7 4 12 17 12 13 0 20 -5 18 -12z m1836 1 c18 -9 26 -22 31
-56 3 -25 4 -48 1 -51 -4 -3 -34 3 -69 14 -58 19 -62 22 -65 53 -2 20 2 37 10
42 18 12 63 11 92 -2z m-3332 -241 c-15 -15 -26 -4 -18 18 5 13 9 15 18 6 9
-9 9 -15 0 -24z m1838 -98 c0 -5 -7 -10 -16 -10 -8 0 -12 5 -9 10 3 6 10 10
16 10 5 0 9 -4 9 -10z m1470 -215 c0 -8 -4 -15 -9 -15 -13 0 -22 16 -14 24 11
11 23 6 23 -9z m325 -84 c0 -13 -6 -26 -12 -28 -8 -3 -13 4 -13 17 0 17 -4 21
-20 17 -22 -6 -28 8 -7 17 28 11 52 1 52 -23z m-1698 -100 c25 -37 33 -75 11
-53 -7 7 -36 12 -65 12 -61 0 -66 10 -25 50 34 35 51 33 79 -9z m353 -158 c-1
-16 -46 -87 -58 -91 -10 -3 -12 5 -7 34 4 22 8 45 10 52 5 13 55 17 55 5z
m-3000 -22 c0 -20 -26 -36 -35 -21 -8 13 6 40 21 40 8 0 14 -9 14 -19z m2600
-49 c0 -15 -25 -62 -33 -62 -14 0 -19 28 -7 49 10 20 40 30 40 13z m70 -32 c0
-5 -2 -10 -4 -10 -3 0 -8 5 -11 10 -3 6 -1 10 4 10 6 0 11 -4 11 -10z m-2695
-60 c6 -20 -19 -90 -32 -90 -4 0 -28 6 -53 14 l-45 13 46 47 c48 48 72 52 84
16z m6356 -22 c1 -7 0 -25 -1 -40 -1 -16 6 -30 17 -37 17 -9 17 -11 -2 -25
-37 -27 -57 22 -39 92 7 24 23 30 25 10z m-3723 -25 c2 -8 -5 -13 -17 -13 -21
0 -35 13 -24 24 10 10 36 3 41 -11z m43 -53 c32 10 47 -5 35 -35 -8 -22 -34
-18 -96 15 -45 24 -50 29 -30 30 14 0 32 5 40 10 11 7 16 5 18 -9 3 -16 8 -18
33 -11z m-541 0 c0 -5 -4 -10 -10 -10 -5 0 -10 5 -10 10 0 6 5 10 10 10 6 0
10 -4 10 -10z m726 -42 c-3 -13 -8 -40 -11 -60 -11 -68 -79 -78 -87 -12 -4 31
0 38 36 65 48 35 68 37 62 7z m3439 -69 c4 -11 4 -23 1 -26 -10 -10 -35 18
-29 33 8 20 21 17 28 -7z m-4050 1 c9 -14 -6 -81 -16 -74 -12 7 -12 84 0 84 6
0 13 -4 16 -10z m2250 -60 c3 -5 -3 -10 -14 -10 -12 0 -21 5 -21 10 0 6 6 10
14 10 8 0 18 -4 21 -10z m-2176 -33 c13 -16 5 -27 -15 -21 -8 2 -21 6 -30 9
-8 3 -12 9 -9 15 9 14 41 12 54 -3z m621 -37 c11 -6 12 -12 4 -20 -13 -13 -44
-2 -44 16 0 16 18 18 40 4z m-109 -49 c12 -15 19 -36 17 -55 -3 -29 -6 -31
-49 -34 -42 -3 -47 -1 -52 20 -5 18 -13 24 -34 23 -35 0 -68 49 -43 65 8 5 43
9 78 8 55 -1 66 -5 83 -27z m-161 -82 c0 -14 7 -19 30 -19 17 0 30 -4 30 -9 0
-5 3 -16 6 -25 5 -12 -1 -16 -23 -16 -37 0 -45 -7 -30 -30 9 -15 6 -29 -12
-68 -15 -31 -21 -57 -16 -71 6 -19 3 -21 -28 -21 -20 0 -50 11 -73 26 -36 25
-39 25 -51 8 -17 -23 -16 -46 2 -91 20 -47 19 -53 -6 -48 -34 7 -47 23 -70 86
-25 67 -33 76 -74 81 -25 3 -30 -1 -38 -29 -12 -40 -37 -52 -37 -18 0 37 40
74 100 94 69 23 73 45 10 49 -85 5 -89 21 -14 47 34 11 40 18 44 51 7 50 23
53 53 9 l24 -36 17 25 c18 29 47 46 91 56 34 8 65 -17 65 -51z m1899 34 c-2
-20 -37 -68 -52 -71 -13 -3 -17 4 -17 25 0 16 5 34 12 41 13 13 58 17 57 5z
m-3362 -79 c5 -15 -20 -24 -37 -14 -7 4 -9 13 -5 19 8 14 37 11 42 -5z m3587
-61 c8 -19 -7 -38 -22 -29 -11 7 -4 46 8 46 4 0 11 -8 14 -17z m-4556 -186 c2
-10 -3 -17 -12 -17 -10 0 -16 9 -16 21 0 24 23 21 28 -4z m4332 -1 c0 -2 -7
-7 -16 -10 -8 -3 -12 -2 -9 4 6 10 25 14 25 6z m-2170 -53 c0 -13 -7 -36 -15
-51 -29 -53 -30 -54 -58 -41 -15 7 -27 15 -27 18 0 3 -3 16 -6 28 -5 17 -1 22
17 25 13 2 33 17 44 34 23 36 45 29 45 -13z m-1665 10 c-9 -39 -28 -76 -41
-80 -11 -4 -44 58 -44 82 0 17 15 23 59 24 31 1 33 -1 26 -26z m85 7 c0 -11
-6 -20 -14 -20 -21 0 -31 21 -15 31 22 14 29 11 29 -11z m1245 -21 c4 -5 17
-14 29 -19 24 -9 33 -50 11 -50 -8 0 -26 11 -40 26 -14 14 -30 22 -35 19 -12
-7 -12 -3 -4 19 7 18 30 21 39 5z m95 -4 c-7 -8 -17 -15 -22 -15 -6 0 -5 7 2
15 7 8 17 15 22 15 6 0 5 -7 -2 -15z m-1148 -52 c9 -10 25 -37 37 -60 20 -41
24 -43 65 -43 32 0 47 5 57 20 14 19 15 19 62 -10 46 -29 62 -60 32 -60 -22 0
-18 -31 4 -37 10 -3 31 -27 46 -55 26 -47 26 -50 8 -63 -25 -20 -32 -19 -54 8
l-18 22 -1 -41 c0 -45 42 -139 71 -157 31 -19 22 -24 -43 -24 -56 0 -63 -2
-84 -29 -33 -40 -85 -37 -184 10 -59 29 -82 35 -111 31 -31 -5 -37 -3 -47 20
-7 14 -12 48 -12 75 0 49 0 50 32 50 43 0 103 31 163 85 40 36 46 45 29 45
-27 0 -56 33 -88 99 -30 63 -31 74 -12 91 8 6 12 18 9 26 -7 20 21 18 39 -3z
m1018 -29 c0 -8 -4 -12 -10 -9 -5 3 -10 13 -10 21 0 8 5 12 10 9 6 -3 10 -13
10 -21z m-422 -41 c-3 -42 -21 -51 -26 -15 -4 29 4 52 18 52 7 0 10 -15 8 -37z
m1975 6 c33 -15 51 -58 42 -99 -5 -24 -11 -30 -23 -24 -10 4 -34 10 -55 13
-36 6 -41 10 -62 61 -13 30 -21 59 -18 64 7 10 81 1 116 -15z m-1413 -30 c0
-24 -23 -21 -28 4 -2 10 3 17 12 17 10 0 16 -9 16 -21z m-1536 -5 c18 -17 13
-34 -10 -34 -8 0 -14 10 -14 25 0 29 3 30 24 9z m220 -86 c9 -12 16 -30 16
-40 0 -10 6 -18 14 -18 17 0 46 27 46 43 0 7 5 4 11 -6 15 -25 2 -94 -14 -78
-16 16 -43 14 -109 -6 -46 -15 -57 -21 -52 -35 9 -29 -14 -20 -31 12 -10 20
-15 59 -15 130 l0 101 59 -41 c33 -22 67 -50 75 -62z m5464 74 c-5 -27 -28
-26 -28 2 0 19 4 24 15 19 9 -3 15 -12 13 -21z m-1128 -2 c0 -13 -11 -13 -30
0 -12 8 -11 10 8 10 12 0 22 -4 22 -10z m1453 -32 c7 -26 1 -38 -19 -38 -15 0
-18 18 -8 44 9 22 21 20 27 -6z m-3496 -20 c33 -16 36 -46 6 -74 -41 -38 -109
-29 -133 16 -15 28 3 58 43 68 33 9 47 7 84 -10z m-1607 -31 c0 -8 -9 -22 -20
-32 -23 -21 -25 -16 -8 20 12 27 28 34 28 12z m3890 -17 c0 -5 -4 -10 -10 -10
-5 0 -10 5 -10 10 0 6 5 10 10 10 6 0 10 -4 10 -10z m-4750 -40 l20 -40 -29 0
c-33 0 -39 10 -33 52 6 39 18 35 42 -12z m5801 8 c4 -44 -21 -86 -42 -72 -10
6 -12 45 -3 68 7 19 43 22 45 4z m-96 -18 c3 -5 -3 -10 -15 -10 -12 0 -18 5
-15 10 3 6 10 10 15 10 5 0 12 -4 15 -10z m-2785 -50 c0 -11 -26 -20 -56 -20
-17 0 -24 -6 -24 -20 0 -11 6 -20 14 -20 25 0 28 -18 6 -30 -47 -25 -64 37
-23 82 22 25 83 31 83 8z m-3459 -2 c8 -7 27 -30 43 -50 21 -29 34 -38 57 -38
16 0 29 -2 29 -4 0 -17 -33 -73 -49 -83 -11 -7 -21 -22 -23 -33 -4 -28 -23
-25 -21 4 1 15 -7 28 -21 36 -30 15 -56 70 -63 132 -5 43 -4 48 14 48 10 0 26
-6 34 -12z m1469 2 c0 -5 -12 -10 -26 -10 -14 0 -23 4 -19 10 3 6 15 10 26 10
10 0 19 -4 19 -10z m10 -75 c0 -8 -4 -15 -10 -15 -5 0 -10 7 -10 15 0 8 5 15
10 15 6 0 10 -7 10 -15z m1934 -87 c-3 -4 -23 -8 -44 -8 -48 0 -71 -28 -72
-89 -1 -52 22 -86 67 -102 38 -14 41 -28 8 -44 -15 -8 -18 -15 -12 -30 4 -11
8 -38 8 -60 1 -22 6 -47 11 -55 7 -11 4 -20 -13 -32 l-22 -17 23 -21 c22 -21
23 -23 5 -42 -17 -19 -18 -19 -32 11 -18 38 -28 39 -41 5 -15 -37 -13 -42 17
-46 20 -2 29 -10 35 -33 5 -16 21 -45 37 -63 l29 -33 6 25 c11 43 26 29 26
-22 0 -48 1 -49 42 -66 37 -14 43 -14 51 -1 13 23 22 18 36 -21 17 -48 49 -62
95 -40 18 9 44 16 55 16 33 0 96 -36 115 -64 20 -31 31 -32 53 -6 21 24 39 25
59 5 9 -8 31 -15 50 -15 30 0 34 -3 34 -27 0 -16 9 -41 20 -58 11 -16 20 -43
20 -59 0 -28 -1 -28 -39 -22 -36 5 -40 4 -43 -16 -2 -15 -16 -29 -40 -41 -37
-16 -52 -47 -25 -47 15 0 51 -37 60 -62 3 -9 0 -22 -8 -28 -10 -9 -9 -19 10
-59 30 -61 50 -70 81 -36 26 29 49 28 93 -4 42 -29 64 -67 69 -120 4 -41 8
-51 23 -51 23 0 52 28 73 68 23 44 44 47 80 14 42 -39 85 -67 121 -79 l30 -10
-32 -16 c-18 -10 -50 -17 -72 -17 -42 0 -44 -2 -53 -65 -2 -13 -17 -23 -48
-33 l-45 -14 0 -129 c-1 -117 1 -129 17 -129 10 0 24 -13 33 -30 13 -26 18
-28 41 -20 54 21 102 6 242 -76 33 -18 34 -18 45 0 7 10 20 29 30 42 l19 24
26 -21 c22 -17 35 -19 73 -14 45 6 47 6 57 -24 6 -17 8 -31 4 -32 -4 -1 -18
-2 -31 -2 -22 -2 -24 -6 -24 -52 0 -31 4 -50 12 -49 6 1 18 2 26 3 8 0 30 15
49 31 38 34 60 105 49 160 -5 26 -10 31 -31 28 -24 -3 -28 2 -45 57 -26 83
-19 222 16 322 30 84 24 95 -45 86 -54 -8 -71 9 -63 64 7 48 -10 60 -33 23
-12 -19 -12 -19 -45 0 -28 17 -51 20 -142 19 -106 -1 -148 10 -116 30 17 11 8
39 -15 48 -11 4 -23 -1 -35 -15 -23 -29 -43 -29 -35 1 18 73 26 139 35 277 12
182 17 203 41 195 14 -4 19 2 24 29 5 28 88 211 102 225 2 2 10 -2 19 -9 9 -7
39 -12 71 -11 l55 1 -7 -37 c-9 -46 13 -67 55 -52 27 11 176 18 184 9 10 -11
15 -87 7 -100 -11 -16 -13 -9 -10 32 2 34 -10 40 -49 27 -37 -13 -37 -13 -11
-46 13 -17 20 -41 20 -68 l0 -42 50 5 c28 2 50 1 50 -4 0 -26 -42 -114 -70
-147 -18 -21 -31 -40 -29 -41 2 -2 25 -8 51 -15 26 -6 68 -24 94 -39 49 -29
69 -54 37 -46 -36 8 -74 -44 -63 -86 8 -31 34 -29 72 8 24 22 31 24 53 14 23
-10 24 -15 14 -33 -7 -13 -9 -39 -5 -63 21 -137 20 -136 60 -105 34 27 56 12
56 -37 0 -27 4 -34 20 -34 13 0 20 -7 20 -19 0 -10 7 -24 16 -32 13 -10 17
-10 25 2 4 8 7 21 4 29 -16 58 -17 70 -2 70 8 0 24 12 35 27 11 16 23 26 26
23 3 -3 0 -53 -5 -110 -11 -115 -29 -161 -69 -170 -19 -4 -27 -16 -36 -53 -11
-44 -11 -48 9 -62 12 -8 27 -15 34 -15 18 0 16 -6 -9 -43 -28 -39 -38 -47 -60
-47 -13 0 -18 8 -18 30 0 28 2 30 20 20 20 -11 30 3 10 15 -5 3 -10 19 -10 36
0 16 -2 29 -5 29 -3 0 -24 -18 -47 -39 -44 -43 -84 -59 -102 -41 -8 8 -1 20
25 44 20 18 42 36 50 39 11 5 11 8 -3 20 -10 8 -18 28 -18 46 0 38 -13 39 -75
9 -29 -14 -48 -31 -52 -46 -8 -33 21 -101 72 -167 50 -64 53 -75 26 -99 -24
-22 -34 -56 -16 -56 7 0 18 6 24 14 7 8 42 22 79 32 97 25 104 30 101 69 -4
41 5 52 26 35 11 -9 14 -22 10 -42 -6 -23 -3 -28 13 -28 24 0 38 -16 47 -53 8
-28 25 -37 25 -12 0 21 30 33 67 28 24 -4 34 -1 39 11 4 9 33 35 65 57 57 38
71 60 48 75 -14 8 -3 67 23 117 17 34 23 38 44 33 19 -5 38 1 72 24 45 29 82
36 83 15 0 -5 10 -25 21 -43 21 -35 17 -47 -17 -54 -50 -9 0 -143 58 -155 32
-7 34 -21 6 -52 -11 -12 -18 -29 -15 -37 9 -23 56 6 101 60 59 72 90 75 54 4
-13 -25 -23 -62 -23 -90 -1 -28 -6 -48 -12 -48 -11 0 -104 -93 -104 -104 0 -2
8 -12 17 -22 16 -15 16 -17 -2 -30 -10 -8 -27 -14 -37 -14 -12 0 -18 -7 -18
-23 0 -33 -27 -67 -54 -67 -16 0 -25 -9 -35 -35 -9 -26 -23 -39 -55 -53 -23
-11 -79 -53 -123 -95 -45 -42 -100 -85 -123 -97 l-43 -22 6 22 c4 16 2 20 -10
16 -8 -3 -20 -6 -27 -6 -7 0 -21 -24 -30 -54 -9 -29 -31 -73 -48 -96 -29 -39
-34 -42 -66 -36 -31 5 -39 1 -79 -40 -24 -26 -47 -43 -51 -39 -4 3 1 11 11 16
17 10 24 39 9 39 -11 0 -55 -30 -69 -48 -20 -25 -16 -44 7 -37 30 10 26 -23
-5 -37 -21 -10 -29 -8 -48 10 -29 27 -33 27 -40 2 -3 -10 -26 -32 -51 -47 -63
-38 -49 -62 22 -39 13 4 22 3 22 -2 0 -6 -71 -47 -158 -91 -148 -76 -242 -135
-242 -153 0 -19 68 -5 140 27 80 36 105 41 129 26 10 -6 -7 -20 -60 -52 -58
-33 -87 -44 -130 -47 -31 -2 -65 0 -74 6 -13 7 -26 4 -51 -13 -18 -12 -55 -26
-81 -29 -71 -10 -83 -15 -83 -35 0 -9 -7 -26 -15 -37 -19 -26 -19 -32 6 -39
21 -7 21 -7 -4 -24 -13 -9 -37 -25 -51 -35 -27 -19 -27 -19 -56 3 -42 31 -137
29 -208 -4 -79 -37 -107 -71 -91 -113 5 -14 8 -25 7 -26 -2 0 -27 -14 -57 -29
-38 -20 -57 -25 -64 -18 -14 14 -50 14 -65 -1 -8 -8 -19 -5 -45 15 -33 25 -36
25 -135 19 -58 -4 -107 -13 -114 -20 -9 -9 -5 -12 20 -12 25 0 32 -4 32 -20 0
-17 -6 -19 -52 -17 -52 2 -53 1 -51 -25 2 -33 -5 -34 -93 -11 -35 9 -66 14
-70 11 -10 -11 6 -28 27 -28 24 0 26 -20 2 -21 -10 0 -28 -2 -40 -5 -18 -3
-23 1 -23 16 0 12 -7 23 -15 26 -8 4 -15 12 -15 20 0 18 -24 18 -39 0 -8 -10
-8 -21 -1 -40 5 -15 10 -29 10 -31 0 -6 -641 1 -665 8 -11 2 -49 8 -85 11
-194 21 -468 80 -700 152 -221 69 -550 207 -550 230 0 7 -19 18 -42 25 -47 12
-133 54 -142 67 -3 5 -1 23 3 40 9 29 8 30 -33 41 -51 13 -80 41 -71 70 6 19
2 21 -32 21 -52 0 -87 24 -73 51 14 25 5 39 -23 39 -12 0 -31 7 -41 15 -19 15
-56 21 -56 9 0 -3 5 -14 10 -24 7 -13 7 -21 -2 -26 -6 -4 -14 -2 -16 4 -6 20
-118 156 -159 194 -50 45 -105 74 -169 86 -90 18 -97 21 -126 49 -31 29 -35
43 -15 43 8 0 24 11 37 25 l23 25 56 -53 56 -52 3 32 c2 17 10 37 18 44 13 10
8 19 -33 56 -44 41 -46 44 -20 38 32 -7 127 -50 177 -80 19 -12 45 -25 57 -29
20 -6 22 -5 15 13 -22 59 -76 92 -224 135 -113 32 -168 61 -168 86 0 25 15 33
29 16 7 -8 35 -20 64 -26 55 -13 94 -33 113 -58 9 -13 12 -11 17 10 4 15 10
33 13 42 4 9 3 16 -2 15 -30 -5 -49 17 -38 46 4 10 15 12 33 9 26 -6 29 -3 35
33 10 64 19 71 61 49 41 -22 56 -60 32 -83 -11 -12 -19 -12 -35 -4 -34 18 -43
14 -36 -16 13 -52 43 -101 88 -140 41 -36 293 -169 302 -160 10 10 -11 38 -57
77 -28 23 -48 44 -46 46 2 3 33 -9 68 -25 35 -17 83 -33 107 -37 39 -6 42 -5
42 15 0 12 11 38 25 58 29 43 23 56 -40 84 -30 13 -36 19 -23 24 27 11 29 33
6 79 -11 24 -18 51 -15 60 5 12 17 5 58 -35 56 -54 129 -95 228 -128 77 -25
93 -26 63 -5 -12 8 -22 22 -22 30 0 27 46 14 125 -37 72 -45 85 -50 124 -46
54 6 63 19 45 69 l-13 38 39 -6 c31 -5 48 -1 84 19 31 17 46 21 46 13 0 -18
41 -35 66 -26 28 11 47 42 73 122 13 37 27 70 32 74 5 3 -6 27 -25 52 -34 47
-128 227 -141 270 -5 18 5 35 50 85 99 111 127 203 96 315 -12 42 -13 43 -44
37 -18 -4 -45 -15 -62 -25 -27 -16 -33 -17 -57 -4 -32 17 -37 34 -9 34 36 0
51 12 51 39 0 27 -35 112 -49 121 -24 15 -61 106 -61 151 0 38 -4 51 -19 59
-30 15 -48 12 -54 -10 -7 -26 -34 -26 -42 0 -3 11 -3 39 0 62 6 38 4 44 -17
53 -23 10 -42 40 -52 85 -5 22 0 29 46 56 76 44 86 47 116 25 15 -10 55 -21
89 -25 l62 -7 25 38 c27 39 33 68 17 77 -5 3 -11 -1 -15 -9 -14 -38 -96 5 -96
51 0 37 56 46 102 16 14 -9 47 -35 73 -56 l46 -39 15 21 15 22 59 -40 c32 -22
61 -49 65 -60 7 -22 20 -26 30 -10 17 28 109 -4 169 -59 29 -26 29 -26 23 -3
-4 18 3 33 29 61 39 44 42 61 14 79 -23 14 -25 39 -8 78 12 25 15 26 70 20 32
-3 58 -3 58 0 0 3 -15 32 -32 64 -31 56 -32 60 -18 92 18 43 19 122 0 177 -11
33 -11 46 -3 48 22 8 76 48 80 60 2 6 -5 14 -16 18 -33 10 -25 28 10 21 33 -6
45 -16 72 -58 15 -24 21 -26 42 -18 21 8 30 5 59 -25 33 -32 37 -34 68 -23 18
6 61 27 96 46 53 29 70 33 110 29 56 -5 125 20 118 43 -2 8 -14 39 -25 68 -19
47 -19 53 -5 59 8 3 20 16 25 29 17 47 71 22 84 -38 7 -30 20 -47 36 -48 4 0
9 19 13 43 17 114 18 116 39 119 16 2 23 13 30 45 l8 42 44 -31 c24 -17 42
-35 39 -40z m3369 17 c-3 -8 -9 -15 -14 -15 -10 0 -12 24 -3 33 11 11 24 -3
17 -18z m-1592 -18 c-1 -12 -15 -9 -19 4 -3 6 1 10 8 8 6 -3 11 -8 11 -12z
m-4691 -97 c0 -11 -7 -20 -15 -20 -17 0 -18 2 -9 24 9 23 24 20 24 -4z m256 7
c11 -11 -6 -57 -21 -57 -18 0 -38 37 -31 56 5 14 39 15 52 1z m1484 -22 c0 -8
-7 -15 -15 -15 -8 0 -15 7 -15 15 0 8 7 15 15 15 8 0 15 -7 15 -15z m-2192
-23 c3 -20 0 -23 -20 -20 -15 2 -24 11 -26 26 -3 20 0 23 20 20 15 -2 24 -11
26 -26z m2370 -31 c2 -13 16 -30 33 -39 16 -10 29 -20 29 -23 0 -3 -19 -14
-42 -24 -24 -11 -44 -20 -46 -21 -2 -1 1 -11 7 -21 7 -15 5 -26 -10 -49 -25
-39 -24 -50 11 -94 30 -38 30 -39 11 -49 -30 -16 -59 -13 -65 7 -2 9 -10 43
-16 75 -10 49 -9 62 4 82 15 22 14 25 -3 37 -17 12 -19 22 -14 76 4 40 10 62
17 59 6 -2 20 -1 31 4 31 12 50 6 53 -20z m4061 -22 l-12 -24 -10 23 c-8 18
-7 26 4 32 21 14 32 -5 18 -31z m51 -19 c0 -5 -4 -10 -10 -10 -5 0 -10 5 -10
10 0 6 5 10 10 10 6 0 10 -4 10 -10z m-5810 -25 c16 -19 5 -65 -16 -65 -8 0
-13 4 -10 9 3 5 -1 14 -9 21 -18 15 -19 37 -2 43 20 9 24 8 37 -8z m1495 -17
c-4 -13 -7 -38 -6 -56 1 -29 -3 -33 -29 -39 -42 -8 -35 -32 15 -59 22 -11 42
-28 43 -38 4 -17 1 -17 -35 2 -21 11 -46 23 -55 26 -11 3 -18 15 -18 29 0 34
-37 77 -66 77 -29 0 -33 26 -5 35 10 3 26 14 36 25 14 15 31 20 73 20 52 0 54
-1 47 -22z m-2190 -28 c-3 -5 -10 -10 -16 -10 -5 0 -9 5 -9 10 0 6 7 10 16 10
8 0 12 -4 9 -10z m789 -26 c7 -19 -2 -37 -15 -29 -12 8 -12 45 0 45 5 0 12 -7
15 -16z m5896 -43 c0 -36 -15 -48 -29 -24 -6 11 -6 24 0 35 15 27 29 21 29
-11z m-5817 -71 c4 0 7 7 7 16 0 26 17 6 22 -26 3 -22 0 -34 -12 -40 -10 -5
-23 -23 -30 -40 -7 -16 -16 -30 -21 -30 -19 0 -30 42 -23 88 9 61 12 66 33 48
10 -9 21 -16 24 -16z m2637 -10 c0 -5 -4 -10 -10 -10 -5 0 -10 5 -10 10 0 6 5
10 10 10 6 0 10 -4 10 -10z m2870 -58 c-14 -5 -50 36 -50 56 0 12 8 8 30 -18
16 -19 25 -36 20 -38z m100 27 c0 -24 -23 -21 -28 4 -2 10 3 17 12 17 10 0 16
-9 16 -21z m-4020 -49 c13 -24 5 -41 -15 -33 -16 6 -21 53 -5 53 5 0 14 -9 20
-20z m-1421 -19 c10 -6 12 -20 8 -47 -9 -56 -21 -61 -56 -26 -29 29 -39 60
-24 75 9 10 55 8 72 -2z m2484 -9 c10 -11 13 -23 8 -31 -5 -7 -4 -31 2 -53 7
-28 7 -42 -2 -51 -15 -15 -31 7 -31 46 0 20 -5 27 -20 27 -16 0 -20 7 -20 33
0 19 3 37 7 40 12 13 40 7 56 -11z m2770 8 c15 0 18 -7 15 -32 -4 -41 -38 -54
-38 -15 0 14 -10 32 -22 41 l-23 17 25 -5 c14 -3 33 -6 43 -6z m-1210 -135 c4
-24 -39 -105 -65 -121 -15 -9 -29 18 -21 41 7 25 64 105 74 105 3 0 9 -11 12
-25z m1658 -68 c-1 -12 -15 -9 -19 4 -3 6 1 10 8 8 6 -3 11 -8 11 -12z m-221
-16 c0 -11 -4 -23 -10 -26 -6 -4 -10 5 -10 19 0 14 5 26 10 26 6 0 10 -9 10
-19z m-160 -75 c7 -31 5 -39 -13 -51 l-22 -15 23 -63 c24 -67 21 -103 -7 -91
-9 4 -31 6 -50 5 -27 -1 -32 1 -27 14 3 9 6 27 6 40 0 13 11 37 25 53 23 27
23 30 8 52 -15 21 -15 24 4 39 12 9 24 26 28 39 9 29 14 24 25 -22z m244 28
c11 -30 7 -94 -7 -94 -33 0 -48 50 -27 91 13 23 26 24 34 3z m-84 -25 c0 -5
-4 -9 -10 -9 -5 0 -10 7 -10 16 0 8 5 12 10 9 6 -3 10 -10 10 -16z m-317 -33
c78 -3 24 -179 -90 -298 l-45 -46 -37 15 c-20 8 -44 23 -54 33 -18 17 -18 20
2 95 24 87 36 111 81 174 31 42 33 43 73 35 23 -4 54 -8 70 -8z m-1077 -59
c19 -36 14 -42 -42 -42 -39 -1 -44 2 -44 21 0 12 9 33 21 48 24 30 39 24 65
-27z m1581 13 c7 0 13 -9 13 -21 0 -18 -4 -20 -27 -14 -40 9 -46 18 -31 50 12
26 12 27 22 6 5 -12 15 -21 23 -21z m-7481 -102 c15 -29 38 -84 50 -122 24
-70 22 -85 -12 -86 -10 0 -104 280 -104 310 0 17 27 -24 66 -102z m2009 67
c-3 -33 -12 -42 -27 -27 -9 9 -9 18 0 37 14 31 31 25 27 -10z m-145 -50 c0 -8
-4 -15 -10 -15 -5 0 -10 7 -10 15 0 8 5 15 10 15 6 0 10 -7 10 -15z m5410 5
c0 -5 -9 -10 -21 -10 -11 0 -17 5 -14 10 3 6 13 10 21 10 8 0 14 -4 14 -10z
m-2130 -34 c0 -17 -32 -15 -38 2 -2 7 6 12 17 12 12 0 21 -6 21 -14z m-3943
-18 c29 -27 29 -34 1 -41 -25 -7 -53 6 -62 29 -15 38 25 46 61 12z m5818 -88
c10 -22 26 -42 36 -45 25 -8 24 -17 -6 -45 -14 -13 -25 -32 -25 -42 0 -15 -3
-16 -24 -6 -14 6 -28 18 -31 26 -7 18 16 152 26 152 3 0 14 -18 24 -40z
m-5766 -63 c-17 -14 -25 -15 -28 -6 -2 7 7 21 20 32 17 14 25 15 28 6 2 -7 -7
-21 -20 -32z m746 24 c-3 -11 1 -36 10 -57 8 -20 13 -39 10 -42 -2 -2 -19 -6
-38 -7 -30 -1 -35 2 -50 39 -23 56 -22 60 16 73 50 16 59 15 52 -6z m5489 -38
c-13 -55 -54 -98 -54 -57 0 21 38 84 51 84 5 0 7 -12 3 -27z m-7383 -26 c-8
-8 -11 -7 -11 4 0 20 13 34 18 19 3 -7 -1 -17 -7 -23z m5966 11 c28 -12 27
-12 -22 -18 -59 -6 -62 -5 -45 15 15 18 30 19 67 3z m-5353 -27 c8 -12 -21
-34 -34 -26 -17 11 -11 35 9 35 11 0 22 -4 25 -9z m6526 -66 c0 -24 -24 -44
-37 -31 -9 8 14 56 27 56 5 0 10 -11 10 -25z m-7121 -89 c25 -55 52 -86 75
-86 3 0 6 10 6 22 0 16 3 19 11 11 8 -8 5 -20 -12 -42 -23 -32 -23 -32 -4 -67
19 -36 198 -214 215 -214 23 0 8 52 -27 90 -26 30 -33 44 -25 52 8 8 17 1 32
-26 32 -52 45 -46 45 22 0 32 9 79 19 105 l17 46 30 -57 c17 -31 32 -58 33
-60 8 -8 35 12 39 30 7 23 35 21 51 -4 8 -13 6 -22 -10 -40 -11 -13 -33 -45
-48 -71 -15 -26 -35 -53 -46 -59 -25 -16 -6 -58 27 -58 12 0 23 -6 23 -13 0
-7 16 -43 36 -80 22 -42 34 -77 32 -94 -3 -27 -4 -27 -36 19 -51 74 -132 122
-87 51 10 -15 44 -59 74 -98 31 -38 63 -82 70 -97 11 -22 21 -28 48 -28 50 0
80 -25 124 -105 21 -40 48 -80 59 -90 25 -23 25 -35 0 -35 -26 0 -25 -16 4
-55 32 -42 49 -108 40 -159 -5 -33 -8 -37 -14 -21 -9 25 -32 44 -75 65 -76 35
-338 380 -508 667 -102 172 -277 537 -277 577 0 18 29 -29 59 -98z m6676 62
c-4 -13 -16 -32 -26 -43 -16 -16 -19 -17 -19 -3 0 8 7 21 15 28 8 7 15 19 15
26 0 8 5 14 11 14 6 0 8 -9 4 -22z m550 -8 c3 -5 -7 -40 -24 -77 -16 -38 -31
-77 -33 -88 -4 -18 -6 -17 -16 7 -10 23 -7 39 16 98 25 65 42 84 57 60z
m-7125 -9 c0 -14 -18 -23 -30 -16 -6 4 -8 11 -5 16 8 12 35 12 35 0z m6790
-31 c0 -5 -6 -10 -14 -10 -8 0 -18 5 -21 10 -3 6 3 10 14 10 12 0 21 -4 21
-10z m-4930 -31 c0 -27 26 -76 47 -88 17 -9 17 -11 -3 -37 -29 -39 -44 -41
-44 -7 0 15 -11 46 -25 68 -29 48 -31 71 -8 84 22 12 33 5 33 -20z m-1332 -28
c6 -8 12 -24 12 -34 0 -19 -1 -19 -18 -4 -10 10 -25 17 -34 17 -15 0 -20 22
-12 49 4 11 7 11 22 0 9 -7 23 -20 30 -28z m1752 22 c0 -5 -11 -13 -25 -20
-28 -13 -34 1 -7 16 21 12 32 14 32 4z m3820 -53 c15 -36 36 -39 52 -5 16 35
24 24 20 -29 -4 -43 -6 -46 -40 -56 -21 -6 -62 -14 -92 -17 l-55 -6 29 31 c22
23 27 37 22 56 -5 19 -2 26 14 31 11 3 20 13 20 21 0 22 16 9 30 -26z m-5642
-42 c17 -17 15 -67 -3 -75 -21 -7 -23 -4 -31 45 -7 44 7 57 34 30z m895 -20
c4 -12 -3 -160 -8 -166 -8 -10 -39 17 -55 49 -27 51 -25 57 6 28 l27 -24 -7
47 c-5 33 -3 52 6 62 16 19 25 20 31 4z m-789 -53 c27 -41 17 -58 -17 -32 -9
6 -19 24 -23 40 -5 22 -3 26 9 21 9 -3 23 -16 31 -29z m-432 -17 c-6 -6 -15
-7 -22 -3 -8 5 -6 13 7 27 16 18 18 19 21 3 2 -9 -1 -22 -6 -27z m2114 -63 c7
-18 -14 -47 -27 -39 -5 3 -9 16 -9 30 0 27 27 34 36 9z m154 -55 c0 -5 -6 -10
-14 -10 -8 0 -18 5 -21 10 -3 6 3 10 14 10 12 0 21 -4 21 -10z m-1134 -65 c10
-26 -1 -35 -13 -10 -6 14 -7 25 -2 25 5 0 12 -7 15 -15z m-307 -38 c6 -8 8
-16 5 -20 -10 -9 -34 4 -34 19 0 18 14 18 29 1z m5961 -51 c0 -17 -39 -66 -40
-49 0 18 22 63 32 63 4 0 8 -6 8 -14z m-5925 -26 c7 -11 -12 -50 -24 -50 -4 0
-8 14 -9 30 -1 29 19 42 33 20z m479 -25 c35 -32 35 -57 -1 -53 -29 3 -69 50
-59 67 11 17 31 13 60 -14z m851 -233 c-22 -5 -29 3 -21 25 7 17 8 17 22 -2
13 -18 13 -20 -1 -23z m-1095 -26 c0 0 4 -16 9 -34 9 -29 8 -31 -8 -23 -27 15
-44 39 -37 56 3 8 12 12 21 9 8 -3 15 -7 15 -8z m-452 -218 c16 -16 15 -38 -2
-38 -16 0 -46 26 -46 41 0 13 34 11 48 -3z m700 -79 c35 -22 26 -27 -35 -17
-60 9 -108 32 -98 48 6 10 102 -11 133 -31z m4782 -98 c0 -5 -7 -11 -15 -15
-15 -5 -20 5 -8 17 9 10 23 9 23 -2z m-160 -91 c0 -5 -7 -10 -15 -10 -8 0 -15
5 -15 10 0 6 7 10 15 10 8 0 15 -4 15 -10z m-442 -302 c-3 -7 -11 -13 -18 -13
-7 0 -15 6 -17 13 -3 7 4 12 17 12 13 0 20 -5 18 -12z m27 -78 c-3 -5 -13 -10
-21 -10 -8 0 -12 5 -9 10 3 6 13 10 21 10 8 0 12 -4 9 -10z m-45 -84 c0 -21
-47 -54 -86 -62 -40 -7 -57 3 -31 17 9 6 17 16 17 23 0 7 15 18 33 24 46 15
67 14 67 -2z m-4150 -94 c0 -13 -12 -22 -22 -16 -10 6 -1 24 13 24 5 0 9 -4 9
-8z m3340 -306 c0 -17 -14 -29 -23 -20 -8 8 3 34 14 34 5 0 9 -6 9 -14z m-92
-13 c-2 -10 -14 -23 -28 -30 -21 -11 -26 -10 -29 4 -3 18 24 43 47 43 7 0 12
-8 10 -17z m-4016 -1530 c23 -20 23 -57 1 -74 -15 -11 -16 -11 -5 1 27 31 11
72 -33 83 -19 4 -19 5 -1 6 11 0 28 -6 38 -16z m-69 -8 c-3 -9 -8 -14 -10 -11
-3 3 -2 9 2 15 9 16 15 13 8 -4z m-1760 -114 c22 -61 43 -108 47 -104 4 4 24
56 45 116 21 59 42 107 47 107 11 0 9 -5 -42 -149 -23 -64 -44 -107 -53 -109
-15 -3 -17 0 -67 143 -15 44 -31 88 -36 99 -5 13 -3 17 6 14 8 -2 32 -55 53
-117z m517 89 c0 -23 4 -30 20 -30 11 0 20 -4 20 -10 0 -5 -10 -10 -21 -10
-20 0 -21 -4 -17 -71 3 -55 8 -74 23 -85 23 -17 14 -29 -13 -15 -11 6 -22 25
-26 42 -10 51 -7 209 4 209 6 0 10 -13 10 -30z m515 16 c25 -11 33 -19 29 -30
-7 -19 -5 -19 -40 -1 -36 18 -55 19 -78 2 -28 -21 -9 -45 49 -62 87 -25 108
-74 54 -127 -29 -29 -33 -30 -90 -25 -68 6 -72 8 -64 29 5 13 12 14 40 5 50
-15 100 1 100 33 0 16 -8 28 -25 36 -87 40 -105 51 -108 67 -14 70 53 106 133
73z m105 -16 c0 -25 4 -30 25 -30 16 0 25 -6 25 -15 0 -9 -9 -15 -25 -15 -24
0 -25 -3 -25 -60 0 -55 2 -62 25 -72 14 -6 25 -15 25 -20 0 -18 -31 -20 -55
-4 -24 16 -25 20 -25 131 0 96 3 115 15 115 10 0 15 -10 15 -30z m482 -32 l3
-62 36 32 c20 18 45 32 55 32 14 0 9 -9 -21 -40 l-39 -40 42 -60 c40 -57 41
-60 20 -60 -16 0 -32 14 -53 45 -16 25 -33 45 -37 45 -5 0 -8 -20 -8 -45 0
-38 -3 -45 -20 -45 -19 0 -20 7 -20 130 0 122 1 130 20 130 16 0 19 -8 22 -62z
m193 30 c1 -20 -2 -24 -11 -17 -8 7 -14 6 -17 -3 -3 -7 -6 2 -6 20 -1 27 3 33
17 30 11 -2 17 -13 17 -30z m-44 -35 c13 -16 12 -17 -3 -4 -17 13 -22 21 -14
21 2 0 10 -8 17 -17z m-1502 -19 c12 -15 21 -40 21 -55 0 -29 0 -29 -65 -29
-72 0 -83 -12 -44 -51 17 -17 30 -20 65 -16 43 4 59 -5 28 -17 -45 -17 -106 3
-123 41 -45 98 56 206 118 127z m191 16 c17 -11 10 -13 -40 -10 -47 2 -75 -28
-75 -80 0 -55 26 -80 82 -80 27 0 42 -4 38 -10 -9 -15 -78 -12 -102 5 -50 35
-50 135 0 170 24 17 74 20 97 5z m265 -13 c20 -16 28 -35 32 -69 5 -42 3 -50
-25 -78 -41 -41 -83 -41 -124 0 -28 28 -30 36 -25 78 9 82 84 119 142 69z m85
7 c0 -14 2 -14 22 0 24 17 38 20 38 9 0 -5 -14 -16 -30 -25 -29 -17 -30 -19
-30 -93 0 -43 -4 -75 -10 -75 -6 0 -10 40 -10 100 0 60 4 100 10 100 6 0 10
-7 10 -16z m537 1 c30 -21 44 -75 32 -120 -25 -88 -143 -88 -168 0 -20 72 20
135 84 135 17 0 40 -7 52 -15z m198 -5 c0 -10 -8 -14 -27 -12 -58 6 -91 -42
-67 -100 11 -28 36 -40 74 -35 12 1 20 -4 20 -13 0 -19 -48 -25 -85 -10 -63
26 -68 148 -6 179 31 15 91 9 91 -9z m5604 -83 c8 -26 17 -47 21 -47 4 0 13
21 21 47 8 25 20 48 26 50 13 5 -22 -113 -38 -131 -12 -14 -18 -5 -45 69 -16
44 -20 65 -12 63 7 -3 19 -26 27 -51z m638 38 c2 -6 -9 -11 -23 -10 -39 0 -42
-23 -5 -36 34 -12 49 -43 31 -64 -13 -16 -38 -19 -64 -9 -27 10 -18 22 17 20
38 -1 43 19 8 37 -36 18 -48 42 -31 62 14 17 61 17 67 0z m333 -20 c0 -35 16
-47 26 -20 4 8 13 15 22 15 13 0 13 -3 -2 -19 -16 -18 -16 -21 -1 -50 19 -38
8 -40 -22 -3 l-22 27 -1 -27 c0 -16 -4 -28 -10 -28 -6 0 -10 30 -10 70 0 40 4
70 10 70 6 0 10 -16 10 -35z m580 32 c0 -4 -34 -104 -45 -136 -3 -8 -8 -11
-11 -8 -8 7 38 147 48 147 4 0 8 -2 8 -3z m100 -7 c0 -5 -11 -10 -25 -10 -32
0 -32 -16 -1 -24 27 -7 41 -35 31 -65 -7 -23 -37 -35 -65 -26 -31 10 -24 23
13 21 28 -1 32 2 32 24 0 21 -4 25 -30 24 -29 -1 -30 0 -27 32 4 31 7 34 38
34 19 0 34 -4 34 -10z m108 -2 c21 -21 13 -45 -25 -77 l-38 -30 43 -1 c23 0
42 -4 42 -10 0 -5 -22 -10 -50 -10 -62 0 -65 15 -14 63 42 40 39 62 -8 53 -26
-5 -29 -4 -18 9 15 18 51 20 68 3z m82 -48 c0 -33 4 -60 10 -60 6 0 10 -4 10
-10 0 -5 -13 -10 -30 -10 -16 0 -30 5 -30 10 0 6 5 10 10 10 6 0 10 20 10 45
0 38 -2 43 -17 38 -16 -6 -16 -4 1 15 29 34 36 27 36 -38z m120 50 c0 -5 -11
-10 -25 -10 -32 0 -32 -16 -1 -24 27 -7 41 -35 31 -65 -7 -23 -37 -35 -65 -26
-31 10 -24 23 13 21 28 -1 32 2 32 24 0 21 -4 25 -30 24 -29 -1 -30 0 -27 32
4 31 7 34 38 34 19 0 34 -4 34 -10z m102 -7 c39 -35 8 -122 -44 -123 -10 0
-18 5 -18 10 0 6 9 10 20 10 10 0 24 10 31 22 10 18 9 20 -6 15 -24 -10 -55
10 -55 36 0 44 38 61 72 30z m115 5 c14 -23 12 -106 -2 -118 -33 -27 -86 8
-70 46 4 11 7 27 6 37 -5 38 47 64 66 35z m-1836 -46 c-15 -5 -14 -59 2 -65 6
-2 9 -7 6 -11 -15 -17 -37 8 -41 47 -6 59 0 72 24 50 11 -10 15 -19 9 -21z
m359 13 c9 -10 9 -15 1 -15 -15 0 -14 -57 2 -63 6 -2 9 -8 4 -13 -19 -20 -43
38 -38 94 1 16 16 15 31 -3z m-532 -7 c23 -23 13 -38 -24 -38 -46 0 -41 -23 7
-30 27 -4 30 -7 16 -13 -28 -11 -44 -9 -61 9 -32 31 -14 84 29 84 12 0 26 -5
33 -12z m109 5 c14 -6 10 -9 -17 -13 -29 -4 -35 -9 -35 -30 0 -21 5 -26 33
-28 36 -4 34 -22 -3 -22 -28 0 -55 24 -55 50 0 22 25 50 45 50 7 0 22 -3 32
-7z m177 -9 c21 -20 20 -43 -1 -66 -20 -22 -46 -23 -67 -2 -31 30 -9 84 34 84
10 0 26 -7 34 -16z m86 6 c0 -4 -7 -10 -15 -14 -9 -3 -15 -19 -15 -41 0 -19
-4 -35 -10 -35 -5 0 -10 22 -10 49 0 45 2 49 25 49 14 0 25 -4 25 -8z m274 -6
c21 -20 20 -43 -1 -66 -20 -22 -46 -23 -67 -2 -31 30 -9 84 34 84 10 0 26 -7
34 -16z m113 9 c14 -6 10 -9 -17 -13 -29 -4 -35 -9 -35 -30 0 -21 5 -26 33
-28 36 -4 34 -22 -3 -22 -28 0 -55 24 -55 50 0 22 25 50 45 50 7 0 22 -3 32
-7z m250 0 c14 -6 10 -9 -17 -13 -29 -4 -35 -9 -35 -30 0 -21 5 -26 33 -28 36
-4 34 -22 -3 -22 -28 0 -55 24 -55 50 0 22 25 50 45 50 7 0 22 -3 32 -7z m107
-9 c21 -20 20 -43 -1 -66 -20 -22 -46 -23 -67 -2 -31 30 -9 84 34 84 10 0 26
-7 34 -16z m116 4 c0 -9 3 -9 12 0 17 17 45 15 52 -4 10 -25 7 -84 -4 -84 -5
0 -10 18 -10 41 0 33 -3 40 -17 37 -13 -2 -19 -14 -21 -41 -4 -50 -22 -47 -22
4 0 36 -2 40 -22 37 -19 -2 -24 -10 -26 -40 -5 -55 -22 -46 -22 10 l0 49 40 1
c25 1 40 -3 40 -10z m-330 -78 c0 -5 -4 -10 -10 -10 -5 0 -10 5 -10 10 0 6 5
10 10 10 6 0 10 -4 10 -10z"/>
<path d="M4842 9672 c-29 -9 -7 -17 49 -18 53 0 59 1 43 13 -17 12 -63 15 -92
5z"/>
<path d="M5021 9671 c-7 -5 -11 -13 -7 -19 7 -12 66 4 66 17 0 10 -43 12 -59
2z"/>
<path d="M5265 9670 c3 -5 27 -9 53 -9 42 1 44 2 17 9 -45 11 -77 11 -70 0z"/>
<path d="M6141 9493 c-14 -11 -13 -12 10 -13 15 0 32 6 39 14 9 12 8 15 -10
13 -12 -1 -30 -7 -39 -14z"/>
<path d="M5840 9481 c0 -6 9 -11 19 -11 11 0 23 -4 26 -10 10 -16 55 -12 55 5
0 10 -10 15 -34 15 -19 0 -41 3 -50 6 -9 3 -16 1 -16 -5z"/>
<path d="M6423 9383 c9 -2 23 -2 30 0 6 3 -1 5 -18 5 -16 0 -22 -2 -12 -5z"/>
<path d="M3693 9363 c-22 -8 -14 -23 13 -23 15 0 24 5 22 12 -5 14 -18 18 -35
11z"/>
<path d="M4113 9348 c-36 -12 -44 -28 -15 -28 22 0 72 22 72 33 0 9 -17 8 -57
-5z"/>
<path d="M3195 9239 c-11 -17 0 -20 21 -4 17 13 17 14 2 15 -9 0 -20 -5 -23
-11z"/>
<path d="M6675 9240 c3 -5 12 -10 20 -10 8 0 17 5 20 10 4 6 -5 10 -20 10 -15
0 -24 -4 -20 -10z"/>
<path d="M3528 9205 c-16 -13 -28 -31 -28 -39 0 -9 11 -4 31 15 38 35 35 57
-3 24z"/>
<path d="M7020 9070 c-8 -6 -36 -9 -62 -8 -26 1 -50 -1 -53 -3 -3 -3 2 -28 10
-56 32 -109 146 -192 273 -200 88 -5 102 4 65 44 -15 16 -36 52 -46 80 -18 51
-43 81 -86 103 -20 10 -25 10 -33 -4 -11 -19 -39 -21 -56 -4 -17 17 -15 25 9
31 12 3 18 10 14 16 -8 14 -16 14 -35 1z"/>
<path d="M3145 9040 c-16 -16 -26 -32 -23 -36 9 -8 39 10 67 40 23 24 23 26 5
26 -11 0 -33 -13 -49 -30z"/>
<path d="M3415 9040 c-18 -18 -25 -35 -21 -46 6 -14 9 -15 28 -2 12 8 28 24
35 35 11 17 11 22 0 31 -11 9 -20 5 -42 -18z"/>
<path d="M3686 9054 c-4 -9 -4 -19 -2 -21 8 -8 26 8 26 23 0 19 -16 18 -24 -2z"/>
<path d="M3052 9009 c-13 -5 -28 -6 -34 -3 -5 3 -16 -3 -24 -14 -8 -11 -37
-28 -65 -37 -57 -19 -54 -39 4 -25 40 9 147 69 147 82 0 9 2 9 -28 -3z"/>
<path d="M4347 8920 c-6 -25 28 -29 37 -4 9 23 8 24 -13 24 -10 0 -21 -9 -24
-20z"/>
<path d="M4716 8831 c-3 -4 6 -19 19 -31 27 -25 38 -21 50 18 6 20 3 22 -29
22 -19 0 -37 -4 -40 -9z"/>
<path d="M4800 8786 c0 -17 14 -29 23 -20 8 8 -3 34 -14 34 -5 0 -9 -6 -9 -14z"/>
<path d="M7090 8763 c0 -16 16 -31 47 -47 37 -19 51 -7 25 22 -17 20 -72 39
-72 25z"/>
<path d="M7547 8713 c-15 -15 -5 -23 28 -23 36 0 47 13 19 24 -20 8 -39 8 -47
-1z"/>
<path d="M7597 8654 c-11 -12 3 -24 29 -24 16 0 24 5 22 13 -5 13 -40 22 -51
11z"/>
<path d="M6698 8629 c-10 -5 -18 -21 -18 -35 0 -19 8 -28 35 -40 43 -18 50
-18 69 2 21 20 7 47 -35 68 -18 9 -33 16 -33 16 -1 0 -9 -5 -18 -11z"/>
<path d="M6111 8611 c-9 -6 -10 -11 -2 -15 6 -4 11 -16 11 -27 0 -10 5 -19 10
-19 6 0 10 16 10 35 0 36 -5 41 -29 26z"/>
<path d="M7195 8590 c-4 -6 -5 -12 -4 -14 126 -84 174 -102 197 -73 17 20 -3
42 -36 39 -21 -2 -35 3 -48 20 -11 13 -30 23 -44 24 -14 1 -32 4 -41 8 -10 4
-20 2 -24 -4z"/>
<path d="M7412 8543 c4 -22 50 -45 72 -37 14 5 14 8 -1 30 -19 30 -77 35 -71
7z"/>
<path d="M6966 8465 c-5 -15 18 -45 35 -45 11 0 11 3 -1 34 -11 29 -25 34 -34
11z"/>
<path d="M6865 8338 c4 -13 18 -47 32 -77 l26 -54 57 6 c52 4 59 3 68 -17 16
-35 88 -111 157 -166 63 -50 65 -51 90 -34 27 17 33 48 13 60 -7 5 -31 8 -53
9 l-40 0 -3 50 c-4 66 -32 95 -133 136 -72 29 -129 73 -129 100 0 5 -21 9 -46
9 -42 0 -45 -2 -39 -22z"/>
<path d="M7622 8349 c2 -6 8 -10 13 -10 5 0 11 4 13 10 2 6 -4 11 -13 11 -9 0
-15 -5 -13 -11z"/>
<path d="M7366 8185 c-4 -14 -11 -25 -16 -25 -6 0 -10 -7 -10 -15 0 -20 36
-86 43 -79 3 3 23 -4 46 -16 l41 -20 0 25 c0 14 -7 40 -16 57 -10 20 -14 42
-9 64 6 34 6 34 -33 34 -34 0 -41 -4 -46 -25z"/>
<path d="M6950 8148 c0 -30 25 -78 38 -73 7 3 34 5 58 5 49 0 59 14 18 24 -15
4 -43 18 -63 32 -40 27 -51 30 -51 12z"/>
<path d="M6160 8003 c0 -10 -14 -30 -32 -45 -44 -36 -29 -46 34 -24 50 17 52
17 65 0 7 -10 13 -23 13 -29 0 -7 6 -12 13 -13 56 -7 60 -6 68 16 9 24 8 25
-43 36 -18 4 -28 13 -28 24 0 12 -14 23 -37 32 -21 8 -41 16 -45 18 -5 2 -8
-5 -8 -15z"/>
<path d="M7320 7913 c1 -5 7 -19 15 -33 12 -22 14 -23 20 -7 9 23 -1 47 -20
47 -8 0 -15 -3 -15 -7z"/>
<path d="M6981 7866 c-17 -20 71 -66 96 -50 32 20 26 40 -15 52 -51 15 -67 15
-81 -2z"/>
<path d="M7762 7784 c-23 -16 -31 -64 -10 -64 6 0 22 -10 35 -21 20 -20 23
-20 29 -5 9 24 -5 106 -19 106 -7 0 -23 -7 -35 -16z"/>
<path d="M6380 7757 c0 -22 23 -37 57 -37 36 0 41 10 17 34 -19 19 -74 21 -74
3z"/>
<path d="M6937 7693 c-12 -11 -8 -23 8 -23 8 0 15 7 15 15 0 16 -12 20 -23 8z"/>
<path d="M7790 7510 c0 -6 7 -13 15 -16 21 -9 19 -41 -4 -47 -10 -2 -26 0 -35
5 -12 7 -16 5 -16 -10 0 -11 7 -25 15 -32 8 -7 15 -19 15 -26 0 -9 11 -14 30
-14 17 0 45 -7 62 -16 25 -13 32 -14 39 -2 20 31 10 45 -36 51 -56 6 -66 14
-40 33 19 14 19 15 1 49 -18 33 -46 48 -46 25z"/>
<path d="M7733 7368 c3 -9 11 -35 17 -58 7 -27 19 -44 33 -49 12 -5 23 -7 25
-6 6 6 -47 102 -64 116 -16 12 -17 12 -11 -3z"/>
<path d="M8611 7123 c12 -65 16 -73 34 -73 18 0 13 32 -12 88 -22 46 -32 39
-22 -15z"/>
<path d="M8127 7123 c-10 -10 -8 -53 2 -53 15 0 41 30 41 46 0 14 -31 20 -43
7z"/>
<path d="M7600 7063 c0 -14 19 -38 25 -32 8 8 -5 39 -16 39 -5 0 -9 -3 -9 -7z"/>
<path d="M7516 7004 c-3 -8 1 -28 9 -45 13 -23 22 -29 49 -29 41 0 60 21 52
56 -6 24 -8 25 -19 10 -12 -16 -14 -16 -36 3 -29 25 -47 27 -55 5z"/>
<path d="M7837 7004 c-15 -15 -6 -32 13 -27 12 3 19 10 17 16 -4 14 -21 19
-30 11z"/>
<path d="M7711 6966 c-13 -23 -9 -46 9 -46 12 0 23 51 12 62 -5 5 -14 -2 -21
-16z"/>
<path d="M8670 6915 c0 -22 24 -45 46 -45 21 0 25 4 22 23 -2 17 -11 23 -35
25 -18 2 -33 0 -33 -3z"/>
<path d="M7687 6903 c-7 -10 21 -49 29 -40 3 3 -1 15 -9 27 -8 12 -17 18 -20
13z"/>
<path d="M7172 6814 c4 -21 22 -23 26 -1 2 10 -3 17 -13 17 -10 0 -15 -6 -13
-16z"/>
<path d="M7496 6799 c-55 -65 -70 -135 -38 -179 l17 -25 6 58 c4 34 14 66 24
77 14 16 31 100 20 100 -2 0 -15 -14 -29 -31z"/>
<path d="M7307 6776 c10 -55 20 -65 33 -32 13 36 8 52 -19 59 -18 4 -19 1 -14
-27z"/>
<path d="M7094 6734 c4 -10 -1 -25 -10 -35 -14 -15 -14 -21 -4 -34 20 -25 4
-48 -30 -43 -35 5 -36 0 -11 -51 17 -32 58 -71 76 -71 3 0 5 17 5 39 0 65 11
101 41 131 16 16 29 33 29 38 0 19 -38 42 -69 42 -27 0 -32 -3 -27 -16z"/>
<path d="M7360 6696 c0 -9 7 -16 16 -16 9 0 14 5 12 12 -6 18 -28 21 -28 4z"/>
<path d="M8340 6545 c0 -17 2 -18 24 -9 18 7 12 24 -10 24 -8 0 -14 -7 -14
-15z"/>
<path d="M8536 6199 c-14 -74 3 -95 28 -35 11 28 19 33 35 29 12 -3 21 -1 21
4 0 17 -24 33 -51 33 -22 0 -28 -6 -33 -31z"/>
<path d="M7080 6203 c1 -18 19 -35 29 -28 9 5 9 10 0 21 -12 15 -29 19 -29 7z"/>
<path d="M7240 6056 c0 -30 26 -54 42 -38 9 9 9 18 0 37 -15 32 -42 33 -42 1z"/>
<path d="M8333 6063 c-18 -7 -16 -43 2 -43 8 0 15 4 15 9 0 5 3 16 6 25 6 16
0 19 -23 9z"/>
<path d="M7200 6025 c-7 -9 -10 -18 -7 -21 10 -11 37 5 37 21 0 19 -14 19 -30
0z"/>
<path d="M8663 5954 c-4 -11 1 -22 13 -31 17 -12 19 -12 22 2 8 38 -22 62 -35
29z"/>
<path d="M7845 5769 c-9 -14 24 -38 53 -39 31 0 28 17 -8 35 -35 18 -37 18
-45 4z"/>
<path d="M8025 5721 c-6 -6 -32 -11 -60 -13 -51 -3 -63 -23 -14 -23 15 -1 33
-6 40 -12 11 -9 21 -6 43 12 16 12 25 28 22 34 -9 13 -19 14 -31 2z"/>
<path d="M7868 5639 c-32 -34 -19 -52 17 -25 11 8 25 12 32 9 18 -7 16 2 -3
21 -19 20 -25 19 -46 -5z"/>
<path d="M8036 5534 c-4 -15 -2 -32 3 -37 12 -12 18 -8 21 13 7 50 -13 70 -24
24z"/>
<path d="M8114 5539 c-3 -6 -9 -26 -11 -45 -4 -31 -2 -34 21 -34 33 0 49 30
36 64 -10 27 -34 34 -46 15z"/>
<path d="M7900 5475 c-10 -12 -9 -16 4 -21 22 -8 46 2 46 21 0 19 -34 20 -50
0z"/>
<path d="M3006 8334 c-5 -12 -2 -15 10 -10 8 3 18 6 20 6 2 0 4 5 4 10 0 16
-27 11 -34 -6z"/>
<path d="M4100 8475 c0 -9 9 -15 25 -15 16 0 25 6 25 15 0 9 -9 15 -25 15 -16
0 -25 -6 -25 -15z"/>
<path d="M4276 8467 c-11 -41 -7 -67 10 -67 9 0 23 -8 30 -17 13 -17 13 -17
14 0 0 11 13 24 33 32 l32 14 -37 1 c-31 0 -39 4 -44 24 -8 33 -31 40 -38 13z"/>
<path d="M4044 8469 c-7 -12 12 -29 34 -29 15 0 16 12 0 28 -15 15 -25 15 -34
1z"/>
<path d="M4003 8416 c0 -19 27 -30 41 -16 11 11 8 15 -20 24 -14 4 -21 2 -21
-8z"/>
<path d="M4370 8395 c0 -10 44 -44 52 -39 14 9 -12 44 -32 44 -11 0 -20 -2
-20 -5z"/>
<path d="M4261 8291 c-17 -16 -31 -34 -31 -40 0 -14 67 -48 113 -56 27 -5 44
-3 62 9 31 20 32 36 3 36 -31 0 -89 37 -95 61 -7 26 -15 24 -52 -10z"/>
<path d="M5143 8074 c-8 -23 29 -94 50 -94 9 0 43 7 75 16 58 16 58 16 54 51
-6 48 -29 54 -63 14 -26 -31 -27 -32 -40 -13 -13 17 -50 42 -64 42 -3 0 -8 -7
-12 -16z"/>
<path d="M5357 8043 c-4 -3 -7 -15 -7 -25 0 -26 24 -17 28 10 3 21 -8 29 -21
15z"/>
<path d="M4552 7953 c-7 -33 -8 -59 -3 -61 5 -2 19 -12 32 -23 12 -10 24 -19
26 -19 1 0 3 24 3 54 0 43 -5 61 -23 81 l-22 27 -13 -59z"/>
<path d="M5050 7885 c0 -8 7 -15 15 -15 8 0 15 7 15 15 0 8 -7 15 -15 15 -8 0
-15 -7 -15 -15z"/>
<path d="M4993 7738 c2 -7 10 -13 17 -13 7 0 15 6 18 13 2 7 -5 12 -18 12 -13
0 -20 -5 -17 -12z"/>
<path d="M4810 7635 c0 -43 1 -46 23 -40 38 12 42 23 21 52 -33 43 -44 40 -44
-12z"/>
<path d="M5162 7618 c-21 -21 15 -48 63 -48 57 0 62 9 17 36 -42 26 -63 29
-80 12z"/>
<path d="M5202 5398 c-16 -16 -15 -48 1 -48 22 0 39 17 35 35 -4 23 -20 29
-36 13z"/>
<path d="M5220 5256 c0 -14 4 -27 9 -30 10 -6 23 33 15 46 -10 16 -24 7 -24
-16z"/>
<path d="M5310 5190 c-22 -6 -23 -8 -7 -15 20 -8 47 0 47 15 0 11 -4 11 -40 0z"/>
<path d="M5242 5088 c3 -7 13 -15 22 -16 12 -3 17 1 14 10 -3 7 -13 15 -22 16
-12 3 -17 -1 -14 -10z"/>
<path d="M6693 4755 c-3 -9 -3 -18 0 -21 10 -10 47 7 47 22 0 19 -39 18 -47
-1z"/>
<path d="M6590 4737 c0 -33 10 -40 32 -20 26 23 23 43 -7 43 -20 0 -25 -5 -25
-23z"/>
<path d="M6890 4695 c0 -8 7 -15 15 -15 8 0 15 7 15 15 0 8 -7 15 -15 15 -8 0
-15 -7 -15 -15z"/>
<path d="M6820 4671 c0 -11 4 -22 9 -25 11 -7 23 22 15 35 -9 16 -24 10 -24
-10z"/>
<path d="M6750 4620 c0 -13 5 -20 13 -17 6 2 12 10 12 17 0 7 -6 15 -12 18 -8
2 -13 -5 -13 -18z"/>
<path d="M4053 4305 c-3 -9 -3 -19 1 -22 7 -7 36 16 36 28 0 15 -30 10 -37 -6z"/>
<path d="M4243 4208 c-7 -24 -8 -47 -3 -52 10 -10 90 2 90 14 0 4 -11 15 -25
24 -21 14 -24 20 -15 36 9 17 7 20 -13 20 -19 0 -25 -8 -34 -42z"/>
<path d="M4096 4213 c-3 -3 -3 -10 0 -14 7 -12 34 -11 34 0 0 11 -26 22 -34
14z"/>
<path d="M7138 4105 c-22 -29 -22 -35 -5 -35 19 0 50 37 42 49 -9 16 -18 13
-37 -14z"/>
<path d="M7262 4053 c-5 -10 -12 -30 -16 -45 -6 -25 -4 -28 18 -28 14 0 37 10
52 23 23 20 25 26 15 45 -14 27 -57 29 -69 5z"/>
<path d="M4160 3905 c0 -8 7 -15 15 -15 8 0 15 7 15 15 0 8 -7 15 -15 15 -8 0
-15 -7 -15 -15z"/>
<path d="M7863 3683 c-20 -7 -15 -33 5 -33 19 0 42 18 42 32 0 9 -27 9 -47 1z"/>
<path d="M7076 3651 c-4 -6 -3 -19 3 -28 9 -17 10 -17 17 0 8 21 -10 45 -20
28z"/>
<path d="M6433 3605 c-66 -28 -22 -85 66 -85 30 0 44 6 55 22 21 29 20 38 -3
38 -11 0 -23 9 -26 20 -8 24 -44 26 -92 5z"/>
<path d="M2510 2864 c0 -31 23 -28 28 4 2 15 -2 22 -12 22 -11 0 -16 -9 -16
-26z"/>
<path d="M2900 2765 c-16 -19 -5 -32 38 -44 42 -12 50 2 18 34 -29 29 -39 31
-56 10z"/>
<path d="M3010 2724 c0 -12 110 -84 127 -84 23 0 14 14 -31 47 -45 33 -96 52
-96 37z"/>
<path d="M5904 1938 c-3 -4 11 -8 30 -8 20 0 36 2 36 4 0 8 -61 12 -66 4z"/>
<path d="M4336 5404 c-9 -22 3 -32 14 -14 12 19 12 30 1 30 -5 0 -12 -7 -15
-16z"/>
<path d="M1962 3221 c-10 -6 -10 -10 3 -21 13 -11 15 -9 15 9 0 24 0 24 -18
12z"/>
<path d="M2052 3204 c-28 -20 -26 -58 3 -61 11 -1 32 -5 48 -9 40 -9 33 22
-10 45 -14 7 -20 17 -17 26 8 19 4 19 -24 -1z"/>
<path d="M2150 500 c0 -5 5 -10 10 -10 6 0 10 5 10 10 0 6 -4 10 -10 10 -5 0
-10 -4 -10 -10z"/>
<path d="M536 418 c-28 -39 -21 -48 39 -48 59 0 67 9 45 51 -15 27 -64 25 -84
-3z"/>
<path d="M986 424 c-50 -50 -21 -144 44 -144 48 0 80 50 66 104 -13 53 -75 75
-110 40z"/>
<path d="M1616 408 c-32 -46 -8 -118 39 -118 28 0 55 34 55 70 0 36 -27 70
-55 70 -13 0 -31 -10 -39 -22z"/>
<path d="M9524 375 c-4 -9 -2 -21 4 -27 15 -15 44 -1 40 19 -4 23 -36 29 -44
8z"/>
<path d="M9642 373 c5 -26 38 -29 38 -4 0 15 -6 21 -21 21 -14 0 -19 -5 -17
-17z"/>
<path d="M9634 325 c-8 -21 10 -39 30 -32 22 9 20 24 -4 37 -16 9 -22 8 -26
-5z"/>
<path d="M7625 340 c-4 -6 5 -10 19 -10 14 0 26 5 26 10 0 6 -9 10 -19 10 -11
0 -23 -4 -26 -10z"/>
<path d="M7904 336 c-10 -26 4 -48 28 -44 17 2 23 10 23 28 0 18 -6 26 -23 28
-13 2 -25 -3 -28 -12z"/>
<path d="M8264 336 c-10 -26 4 -48 28 -44 17 2 23 10 23 28 0 18 -6 26 -23 28
-13 2 -25 -3 -28 -12z"/>
<path d="M8734 336 c-10 -26 4 -48 28 -44 17 2 23 10 23 28 0 18 -6 26 -23 28
-13 2 -25 -3 -28 -12z"/>
</g>
</svg>
